<svg width="704" height="93" viewBox="0 0 704 93" fill="none" xmlns="http://www.w3.org/2000/svg">
<g filter="url(#filter0_g_3083_68)">
<mask id="path-1-outside-1_3083_68" maskUnits="userSpaceOnUse" x="1.61914" y="1.2793" width="700" height="90" fill="black">
<rect fill="white" x="1.61914" y="1.2793" width="700" height="90"/>
<path d="M4.91707 70.2793V4.91813H48.4609V11.8126H12.8094V32.7681H43.1087V39.5718H12.8094V63.3848H48.597V70.2793H4.91707ZM68.6091 70.2793L85.3009 47.5548L68.473 24.4222H76.5921L89.6553 42.7015L102.718 24.4222H110.611L93.9189 47.4188L110.701 70.2793H102.582L89.5645 52.2721L76.5014 70.2793H68.6091ZM134.66 87.9236V24.4222H140.239L141.055 30.5002C141.781 29.3511 142.733 28.2322 143.913 27.1436C145.092 26.055 146.695 25.163 148.721 24.4675C150.777 23.7418 153.453 23.3789 156.749 23.3789C162.978 23.3789 167.59 25.1932 170.583 28.8219C173.577 32.4203 175.074 38.4681 175.074 46.9652C175.074 55.8856 173.562 62.1753 170.538 65.8342C167.544 69.4931 162.918 71.3225 156.658 71.3225C152.788 71.3225 149.688 70.8538 147.36 69.9164C145.062 68.9488 143.157 67.3613 141.645 65.1538V87.9236H134.66ZM155.026 65.6528C158.322 65.6528 160.907 65.0782 162.782 63.9291C164.657 62.7801 165.987 60.8448 166.773 58.1233C167.59 55.3716 167.998 51.622 167.998 46.8745C167.998 42.3386 167.605 38.7856 166.819 36.2153C166.032 33.6147 164.702 31.7702 162.827 30.6816C160.983 29.593 158.427 29.0487 155.162 29.0487C151.745 29.0487 149.053 29.6081 147.088 30.7269C145.122 31.8458 143.716 33.7357 142.87 36.3967C142.053 39.0577 141.645 42.7015 141.645 47.328C141.645 52.1965 142.008 55.9612 142.733 58.6222C143.489 61.2833 144.835 63.1278 146.77 64.1559C148.706 65.1538 151.457 65.6528 155.026 65.6528ZM220.532 71.3225C215.603 71.3225 211.626 70.5212 208.603 68.9186C205.579 67.3159 203.371 64.7607 201.98 61.253C200.62 57.7453 199.939 53.1188 199.939 47.3734C199.939 39.3601 201.406 33.3577 204.339 29.3662C207.302 25.3747 212.488 23.3789 219.897 23.3789C225.007 23.3789 228.999 24.2861 231.871 26.1004C234.744 27.8845 236.77 30.6362 237.949 34.3556C239.129 38.075 239.718 42.7922 239.718 48.5074H207.015C207.015 54.6458 208.058 59.0456 210.145 61.7066C212.262 64.3374 215.784 65.6528 220.713 65.6528C224.735 65.6528 227.623 65.0631 229.377 63.8838C231.161 62.6742 232.113 60.6029 232.234 57.6697H239.355C239.355 62.3265 237.813 65.7737 234.729 68.0114C231.675 70.2188 226.942 71.3225 220.532 71.3225ZM207.106 43.3365H232.642C232.522 39.6776 232.038 36.8049 231.191 34.7185C230.375 32.632 229.059 31.1503 227.245 30.2734C225.431 29.3964 222.981 28.958 219.897 28.958C216.812 28.958 214.348 29.3964 212.503 30.2734C210.689 31.1503 209.359 32.632 208.512 34.7185C207.695 36.8049 207.227 39.6776 207.106 43.3365ZM272.567 24.4222L273.429 31.5434C275.031 28.3078 277.193 26.1458 279.915 25.0572C282.636 23.9383 285.418 23.3789 288.261 23.3789H289.122V30.3187H288.125C284.829 30.3187 281.865 30.9689 279.234 32.2691C276.604 33.5694 274.804 35.6861 273.837 38.6193V70.2793H266.852V24.4222H272.567ZM312.945 7.41283H322.288V16.1216H312.945V7.41283ZM321.109 70.2793H314.124V24.4222H321.109V70.2793ZM351.417 70.2793V24.4222H357.133L357.722 30.9084C358.992 28.4893 360.897 26.6296 363.437 25.3293C365.977 24.029 368.941 23.3789 372.328 23.3789C375.866 23.3789 378.693 23.9686 380.81 25.1479C382.926 26.3272 384.589 28.2927 385.799 31.0445C388.158 25.9341 393.283 23.3789 401.175 23.3789C406.497 23.3789 410.292 24.8153 412.56 27.6879C414.858 30.5606 416.008 34.8848 416.008 40.6604V70.2793H409.022V41.0686C409.022 36.9864 408.251 33.9927 406.709 32.0877C405.167 30.1826 402.597 29.2301 398.998 29.2301C394.765 29.2301 391.741 30.2431 389.927 32.2691C388.112 34.2649 387.205 37.4702 387.205 41.8851V70.2793H380.22V41.0686C380.22 36.9864 379.449 33.9927 377.907 32.0877C376.364 30.1826 373.794 29.2301 370.196 29.2301C365.962 29.2301 362.938 30.2431 361.124 32.2691C359.31 34.2649 358.403 37.4702 358.403 41.8851V70.2793H351.417ZM463.96 71.3225C459.031 71.3225 455.055 70.5212 452.031 68.9186C449.007 67.3159 446.8 64.7607 445.409 61.253C444.048 57.7453 443.368 53.1188 443.368 47.3734C443.368 39.3601 444.834 33.3577 447.767 29.3662C450.731 25.3747 455.917 23.3789 463.325 23.3789C468.436 23.3789 472.427 24.2861 475.3 26.1004C478.172 27.8845 480.198 30.6362 481.378 34.3556C482.557 38.075 483.147 42.7922 483.147 48.5074H450.443C450.443 54.6458 451.487 59.0456 453.573 61.7066C455.69 64.3374 459.213 65.6528 464.142 65.6528C468.163 65.6528 471.051 65.0631 472.805 63.8838C474.589 62.6742 475.542 60.6029 475.663 57.6697H482.784C482.784 62.3265 481.242 65.7737 478.157 68.0114C475.103 70.2188 470.371 71.3225 463.96 71.3225ZM450.534 43.3365H476.071C475.95 39.6776 475.466 36.8049 474.619 34.7185C473.803 32.632 472.488 31.1503 470.673 30.2734C468.859 29.3964 466.41 28.958 463.325 28.958C460.241 28.958 457.776 29.3964 455.932 30.2734C454.118 31.1503 452.787 32.632 451.94 34.7185C451.124 36.8049 450.655 39.6776 450.534 43.3365ZM510.28 70.2793V24.4222H515.995L516.539 31.0445C518.051 28.2625 520.047 26.297 522.527 25.1479C525.006 23.9686 528.393 23.3789 532.687 23.3789C538.553 23.3789 542.726 24.8455 545.206 27.7787C547.716 30.6816 548.971 35.5652 548.971 42.4294V70.2793H541.985V42.4294C541.985 37.6516 541.108 34.2649 539.355 32.2691C537.631 30.2431 534.728 29.2301 530.646 29.2301C525.838 29.2301 522.406 30.2734 520.35 32.3598C518.293 34.4463 517.265 37.9238 517.265 42.7922V70.2793H510.28ZM599.599 29.8198H588.351V58.1233C588.351 60.6936 588.895 62.5382 589.983 63.657C591.102 64.7456 592.886 65.2899 595.336 65.2899C596.303 65.2899 597.226 65.2445 598.103 65.1538C599.01 65.0329 599.841 64.9119 600.597 64.791V70.8236C599.811 70.9748 598.889 71.1109 597.83 71.2318C596.772 71.383 595.487 71.4586 593.975 71.4586C585.569 71.4586 581.365 66.696 581.365 57.1708V29.8198H573.11V24.2861H581.365V11.7219H588.305V24.2861H599.599V29.8198ZM630.951 36.8049H624.646C624.646 32.2389 626.113 28.8673 629.046 26.6901C631.979 24.5129 636.5 23.4243 642.608 23.4243C648.807 23.4243 653.388 24.5582 656.352 26.8261C659.345 29.094 660.842 32.5866 660.842 37.3039V60.7087C660.842 62.7347 661.144 64.0652 661.749 64.7002C662.354 65.3353 663.564 65.5772 665.378 65.426V70.9597C664.803 71.1713 664.289 71.2923 663.836 71.3225C663.382 71.3528 662.838 71.3679 662.203 71.3679C659.995 71.3679 658.211 70.7782 656.851 69.5989C655.52 68.4196 654.855 66.8623 654.855 64.927C653.343 66.953 651.211 68.5254 648.459 69.6443C645.738 70.7631 642.593 71.3225 639.025 71.3225C633.914 71.3225 629.983 70.1281 627.232 67.7392C624.48 65.3201 623.104 61.9031 623.104 57.4883C623.104 52.4082 624.722 48.7946 627.957 46.6477C631.223 44.4705 636.681 43.3819 644.332 43.3819H653.857V37.2585C653.857 34.2951 652.995 32.1935 651.271 30.9537C649.548 29.6837 646.66 29.0487 642.608 29.0487C638.405 29.0487 635.411 29.6535 633.627 30.863C631.843 32.0423 630.951 34.023 630.951 36.8049ZM653.902 56.445V48.5527H644.286C639.267 48.5527 635.668 49.2331 633.491 50.5938C631.344 51.9243 630.271 54.1771 630.271 57.3522C630.271 60.0435 631.178 62.0997 632.992 63.5209C634.806 64.9421 637.377 65.6528 640.703 65.6528C644.936 65.6528 648.187 64.8666 650.455 63.2941C652.753 61.7217 653.902 59.4387 653.902 56.445ZM691.15 70.2793V4.91813H698.136V70.2793H691.15Z"/>
</mask>
<path d="M4.91707 70.2793V4.91813H48.4609V11.8126H12.8094V32.7681H43.1087V39.5718H12.8094V63.3848H48.597V70.2793H4.91707ZM68.6091 70.2793L85.3009 47.5548L68.473 24.4222H76.5921L89.6553 42.7015L102.718 24.4222H110.611L93.9189 47.4188L110.701 70.2793H102.582L89.5645 52.2721L76.5014 70.2793H68.6091ZM134.66 87.9236V24.4222H140.239L141.055 30.5002C141.781 29.3511 142.733 28.2322 143.913 27.1436C145.092 26.055 146.695 25.163 148.721 24.4675C150.777 23.7418 153.453 23.3789 156.749 23.3789C162.978 23.3789 167.59 25.1932 170.583 28.8219C173.577 32.4203 175.074 38.4681 175.074 46.9652C175.074 55.8856 173.562 62.1753 170.538 65.8342C167.544 69.4931 162.918 71.3225 156.658 71.3225C152.788 71.3225 149.688 70.8538 147.36 69.9164C145.062 68.9488 143.157 67.3613 141.645 65.1538V87.9236H134.66ZM155.026 65.6528C158.322 65.6528 160.907 65.0782 162.782 63.9291C164.657 62.7801 165.987 60.8448 166.773 58.1233C167.59 55.3716 167.998 51.622 167.998 46.8745C167.998 42.3386 167.605 38.7856 166.819 36.2153C166.032 33.6147 164.702 31.7702 162.827 30.6816C160.983 29.593 158.427 29.0487 155.162 29.0487C151.745 29.0487 149.053 29.6081 147.088 30.7269C145.122 31.8458 143.716 33.7357 142.87 36.3967C142.053 39.0577 141.645 42.7015 141.645 47.328C141.645 52.1965 142.008 55.9612 142.733 58.6222C143.489 61.2833 144.835 63.1278 146.77 64.1559C148.706 65.1538 151.457 65.6528 155.026 65.6528ZM220.532 71.3225C215.603 71.3225 211.626 70.5212 208.603 68.9186C205.579 67.3159 203.371 64.7607 201.98 61.253C200.62 57.7453 199.939 53.1188 199.939 47.3734C199.939 39.3601 201.406 33.3577 204.339 29.3662C207.302 25.3747 212.488 23.3789 219.897 23.3789C225.007 23.3789 228.999 24.2861 231.871 26.1004C234.744 27.8845 236.77 30.6362 237.949 34.3556C239.129 38.075 239.718 42.7922 239.718 48.5074H207.015C207.015 54.6458 208.058 59.0456 210.145 61.7066C212.262 64.3374 215.784 65.6528 220.713 65.6528C224.735 65.6528 227.623 65.0631 229.377 63.8838C231.161 62.6742 232.113 60.6029 232.234 57.6697H239.355C239.355 62.3265 237.813 65.7737 234.729 68.0114C231.675 70.2188 226.942 71.3225 220.532 71.3225ZM207.106 43.3365H232.642C232.522 39.6776 232.038 36.8049 231.191 34.7185C230.375 32.632 229.059 31.1503 227.245 30.2734C225.431 29.3964 222.981 28.958 219.897 28.958C216.812 28.958 214.348 29.3964 212.503 30.2734C210.689 31.1503 209.359 32.632 208.512 34.7185C207.695 36.8049 207.227 39.6776 207.106 43.3365ZM272.567 24.4222L273.429 31.5434C275.031 28.3078 277.193 26.1458 279.915 25.0572C282.636 23.9383 285.418 23.3789 288.261 23.3789H289.122V30.3187H288.125C284.829 30.3187 281.865 30.9689 279.234 32.2691C276.604 33.5694 274.804 35.6861 273.837 38.6193V70.2793H266.852V24.4222H272.567ZM312.945 7.41283H322.288V16.1216H312.945V7.41283ZM321.109 70.2793H314.124V24.4222H321.109V70.2793ZM351.417 70.2793V24.4222H357.133L357.722 30.9084C358.992 28.4893 360.897 26.6296 363.437 25.3293C365.977 24.029 368.941 23.3789 372.328 23.3789C375.866 23.3789 378.693 23.9686 380.81 25.1479C382.926 26.3272 384.589 28.2927 385.799 31.0445C388.158 25.9341 393.283 23.3789 401.175 23.3789C406.497 23.3789 410.292 24.8153 412.56 27.6879C414.858 30.5606 416.008 34.8848 416.008 40.6604V70.2793H409.022V41.0686C409.022 36.9864 408.251 33.9927 406.709 32.0877C405.167 30.1826 402.597 29.2301 398.998 29.2301C394.765 29.2301 391.741 30.2431 389.927 32.2691C388.112 34.2649 387.205 37.4702 387.205 41.8851V70.2793H380.22V41.0686C380.22 36.9864 379.449 33.9927 377.907 32.0877C376.364 30.1826 373.794 29.2301 370.196 29.2301C365.962 29.2301 362.938 30.2431 361.124 32.2691C359.31 34.2649 358.403 37.4702 358.403 41.8851V70.2793H351.417ZM463.96 71.3225C459.031 71.3225 455.055 70.5212 452.031 68.9186C449.007 67.3159 446.8 64.7607 445.409 61.253C444.048 57.7453 443.368 53.1188 443.368 47.3734C443.368 39.3601 444.834 33.3577 447.767 29.3662C450.731 25.3747 455.917 23.3789 463.325 23.3789C468.436 23.3789 472.427 24.2861 475.3 26.1004C478.172 27.8845 480.198 30.6362 481.378 34.3556C482.557 38.075 483.147 42.7922 483.147 48.5074H450.443C450.443 54.6458 451.487 59.0456 453.573 61.7066C455.69 64.3374 459.213 65.6528 464.142 65.6528C468.163 65.6528 471.051 65.0631 472.805 63.8838C474.589 62.6742 475.542 60.6029 475.663 57.6697H482.784C482.784 62.3265 481.242 65.7737 478.157 68.0114C475.103 70.2188 470.371 71.3225 463.96 71.3225ZM450.534 43.3365H476.071C475.95 39.6776 475.466 36.8049 474.619 34.7185C473.803 32.632 472.488 31.1503 470.673 30.2734C468.859 29.3964 466.41 28.958 463.325 28.958C460.241 28.958 457.776 29.3964 455.932 30.2734C454.118 31.1503 452.787 32.632 451.94 34.7185C451.124 36.8049 450.655 39.6776 450.534 43.3365ZM510.28 70.2793V24.4222H515.995L516.539 31.0445C518.051 28.2625 520.047 26.297 522.527 25.1479C525.006 23.9686 528.393 23.3789 532.687 23.3789C538.553 23.3789 542.726 24.8455 545.206 27.7787C547.716 30.6816 548.971 35.5652 548.971 42.4294V70.2793H541.985V42.4294C541.985 37.6516 541.108 34.2649 539.355 32.2691C537.631 30.2431 534.728 29.2301 530.646 29.2301C525.838 29.2301 522.406 30.2734 520.35 32.3598C518.293 34.4463 517.265 37.9238 517.265 42.7922V70.2793H510.28ZM599.599 29.8198H588.351V58.1233C588.351 60.6936 588.895 62.5382 589.983 63.657C591.102 64.7456 592.886 65.2899 595.336 65.2899C596.303 65.2899 597.226 65.2445 598.103 65.1538C599.01 65.0329 599.841 64.9119 600.597 64.791V70.8236C599.811 70.9748 598.889 71.1109 597.83 71.2318C596.772 71.383 595.487 71.4586 593.975 71.4586C585.569 71.4586 581.365 66.696 581.365 57.1708V29.8198H573.11V24.2861H581.365V11.7219H588.305V24.2861H599.599V29.8198ZM630.951 36.8049H624.646C624.646 32.2389 626.113 28.8673 629.046 26.6901C631.979 24.5129 636.5 23.4243 642.608 23.4243C648.807 23.4243 653.388 24.5582 656.352 26.8261C659.345 29.094 660.842 32.5866 660.842 37.3039V60.7087C660.842 62.7347 661.144 64.0652 661.749 64.7002C662.354 65.3353 663.564 65.5772 665.378 65.426V70.9597C664.803 71.1713 664.289 71.2923 663.836 71.3225C663.382 71.3528 662.838 71.3679 662.203 71.3679C659.995 71.3679 658.211 70.7782 656.851 69.5989C655.52 68.4196 654.855 66.8623 654.855 64.927C653.343 66.953 651.211 68.5254 648.459 69.6443C645.738 70.7631 642.593 71.3225 639.025 71.3225C633.914 71.3225 629.983 70.1281 627.232 67.7392C624.48 65.3201 623.104 61.9031 623.104 57.4883C623.104 52.4082 624.722 48.7946 627.957 46.6477C631.223 44.4705 636.681 43.3819 644.332 43.3819H653.857V37.2585C653.857 34.2951 652.995 32.1935 651.271 30.9537C649.548 29.6837 646.66 29.0487 642.608 29.0487C638.405 29.0487 635.411 29.6535 633.627 30.863C631.843 32.0423 630.951 34.023 630.951 36.8049ZM653.902 56.445V48.5527H644.286C639.267 48.5527 635.668 49.2331 633.491 50.5938C631.344 51.9243 630.271 54.1771 630.271 57.3522C630.271 60.0435 631.178 62.0997 632.992 63.5209C634.806 64.9421 637.377 65.6528 640.703 65.6528C644.936 65.6528 648.187 64.8666 650.455 63.2941C652.753 61.7217 653.902 59.4387 653.902 56.445ZM691.15 70.2793V4.91813H698.136V70.2793H691.15Z" fill="#FFF9E2"/>
<path d="M4.91707 70.2793H2.15402V73.0424H4.91707V70.2793ZM4.91707 4.91813V2.15508H2.15402V4.91813H4.91707ZM48.4609 4.91813H51.224V2.15508H48.4609V4.91813ZM48.4609 11.8126V14.5756H51.224V11.8126H48.4609ZM12.8094 11.8126V9.04952H10.0463V11.8126H12.8094ZM12.8094 32.7681H10.0463V35.5311H12.8094V32.7681ZM43.1087 32.7681H45.8717V30.005H43.1087V32.7681ZM43.1087 39.5718V42.3348H45.8717V39.5718H43.1087ZM12.8094 39.5718V36.8087H10.0463V39.5718H12.8094ZM12.8094 63.3848H10.0463V66.1479H12.8094V63.3848ZM48.597 63.3848H51.3601V60.6218H48.597V63.3848ZM48.597 70.2793V73.0424H51.3601V70.2793H48.597ZM4.91707 70.2793H7.68012V4.91813H4.91707H2.15402V70.2793H4.91707ZM4.91707 4.91813V7.68118H48.4609V4.91813V2.15508H4.91707V4.91813ZM48.4609 4.91813H45.6979V11.8126H48.4609H51.224V4.91813H48.4609ZM48.4609 11.8126V9.04952H12.8094V11.8126V14.5756H48.4609V11.8126ZM12.8094 11.8126H10.0463V32.7681H12.8094H15.5724V11.8126H12.8094ZM12.8094 32.7681V35.5311H43.1087V32.7681V30.005H12.8094V32.7681ZM43.1087 32.7681H40.3456V39.5718H43.1087H45.8717V32.7681H43.1087ZM43.1087 39.5718V36.8087H12.8094V39.5718V42.3348H43.1087V39.5718ZM12.8094 39.5718H10.0463V63.3848H12.8094H15.5724V39.5718H12.8094ZM12.8094 63.3848V66.1479H48.597V63.3848V60.6218H12.8094V63.3848ZM48.597 63.3848H45.834V70.2793H48.597H51.3601V63.3848H48.597ZM48.597 70.2793V67.5162H4.91707V70.2793V73.0424H48.597V70.2793ZM68.6091 70.2793L66.3822 68.6436L63.1512 73.0424H68.6091V70.2793ZM85.3009 47.5548L87.5277 49.1905L88.7234 47.5627L87.5353 45.9294L85.3009 47.5548ZM68.473 24.4222V21.6591H63.0462L66.2386 26.0476L68.473 24.4222ZM76.5921 24.4222L78.8401 22.8156L78.0136 21.6591H76.5921V24.4222ZM89.6553 42.7015L87.4072 44.308L89.6553 47.4537L91.9033 44.308L89.6553 42.7015ZM102.718 24.4222V21.6591H101.297L100.47 22.8156L102.718 24.4222ZM110.611 24.4222L112.847 26.0452L116.03 21.6591H110.611V24.4222ZM93.9189 47.4188L91.6828 45.7957L90.498 47.428L91.6916 49.0539L93.9189 47.4188ZM110.701 70.2793V73.0424H116.158L112.929 68.6442L110.701 70.2793ZM102.582 70.2793L100.343 71.8981L101.17 73.0424H102.582V70.2793ZM89.5645 52.2721L91.8037 50.6533L89.5684 47.5613L87.328 50.6496L89.5645 52.2721ZM76.5014 70.2793V73.0424H77.9105L78.7379 71.9018L76.5014 70.2793ZM68.6091 70.2793L70.8359 71.915L87.5277 49.1905L85.3009 47.5548L83.074 45.9191L66.3822 68.6436L68.6091 70.2793ZM85.3009 47.5548L87.5353 45.9294L70.7074 22.7967L68.473 24.4222L66.2386 26.0476L83.0665 49.1802L85.3009 47.5548ZM68.473 24.4222V27.1852H76.5921V24.4222V21.6591H68.473V24.4222ZM76.5921 24.4222L74.3441 26.0287L87.4072 44.308L89.6553 42.7015L91.9033 41.095L78.8401 22.8156L76.5921 24.4222ZM89.6553 42.7015L91.9033 44.308L104.966 26.0287L102.718 24.4222L100.47 22.8156L87.4072 41.095L89.6553 42.7015ZM102.718 24.4222V27.1852H110.611V24.4222V21.6591H102.718V24.4222ZM110.611 24.4222L108.375 22.7991L91.6828 45.7957L93.9189 47.4188L96.155 49.0418L112.847 26.0452L110.611 24.4222ZM93.9189 47.4188L91.6916 49.0539L108.474 71.9144L110.701 70.2793L112.929 68.6442L96.1462 45.7836L93.9189 47.4188ZM110.701 70.2793V67.5162H102.582V70.2793V73.0424H110.701V70.2793ZM102.582 70.2793L104.822 68.6605L91.8037 50.6533L89.5645 52.2721L87.3253 53.8909L100.343 71.8981L102.582 70.2793ZM89.5645 52.2721L87.328 50.6496L74.2649 68.6568L76.5014 70.2793L78.7379 71.9018L91.8011 53.8946L89.5645 52.2721ZM76.5014 70.2793V67.5162H68.6091V70.2793V73.0424H76.5014V70.2793ZM134.66 87.9236H131.897V90.6867H134.66V87.9236ZM134.66 24.4222V21.6591H131.897V24.4222H134.66ZM140.239 24.4222L142.977 24.0543L142.655 21.6591H140.239V24.4222ZM141.055 30.5002L138.317 30.868L139.329 38.4069L143.391 31.9756L141.055 30.5002ZM148.721 24.4675L149.618 27.0809L149.629 27.077L149.64 27.073L148.721 24.4675ZM170.583 28.8219L168.452 30.5803L168.459 30.589L170.583 28.8219ZM170.538 65.8342L168.408 64.074L168.4 64.0845L170.538 65.8342ZM147.36 69.9164L146.288 72.463L146.308 72.4714L146.328 72.4796L147.36 69.9164ZM141.645 65.1538L143.924 63.5925L138.882 56.2302V65.1538H141.645ZM141.645 87.9236V90.6867H144.408V87.9236H141.645ZM166.773 58.1233L164.124 57.3374L164.122 57.3469L164.119 57.3564L166.773 58.1233ZM166.819 36.2153L164.174 37.0149L164.176 37.0235L166.819 36.2153ZM162.827 30.6816L161.423 33.0611L161.431 33.0661L161.44 33.071L162.827 30.6816ZM142.87 36.3967L140.237 35.559L140.232 35.5726L140.228 35.5863L142.87 36.3967ZM142.733 58.6222L140.068 59.3492L140.072 59.3633L140.076 59.3773L142.733 58.6222ZM146.77 64.1559L145.474 66.596L145.489 66.604L145.504 66.6117L146.77 64.1559ZM134.66 87.9236H137.423V24.4222H134.66H131.897V87.9236H134.66ZM134.66 24.4222V27.1852H140.239V24.4222V21.6591H134.66V24.4222ZM140.239 24.4222L137.5 24.79L138.317 30.868L141.055 30.5002L143.794 30.1323L142.977 24.0543L140.239 24.4222ZM141.055 30.5002L143.391 31.9756C143.967 31.0638 144.754 30.1273 145.787 29.1739L143.913 27.1436L142.039 25.1133C140.713 26.3372 139.595 27.6383 138.719 29.0247L141.055 30.5002ZM143.913 27.1436L145.787 29.1739C146.607 28.4168 147.839 27.6914 149.618 27.0809L148.721 24.4675L147.824 21.8542C145.55 22.6346 143.577 23.6933 142.039 25.1133L143.913 27.1436ZM148.721 24.4675L149.64 27.073C151.291 26.4905 153.623 26.142 156.749 26.142V23.3789V20.6159C153.283 20.6159 150.263 20.993 147.801 21.862L148.721 24.4675ZM156.749 23.3789V26.142C162.439 26.142 166.141 27.7796 168.452 30.5803L170.583 28.8219L172.715 27.0635C169.038 22.6069 163.517 20.6159 156.749 20.6159V23.3789ZM170.583 28.8219L168.459 30.589C170.817 33.4228 172.311 38.6468 172.311 46.9652H175.074H177.837C177.837 38.2894 176.337 31.4179 172.707 27.0548L170.583 28.8219ZM175.074 46.9652H172.311C172.311 55.7358 170.792 61.1898 168.408 64.074L170.538 65.8342L172.668 67.5944C176.332 63.1608 177.837 56.0355 177.837 46.9652H175.074ZM170.538 65.8342L168.4 64.0845C166.089 66.9085 162.377 68.5595 156.658 68.5595V71.3225V74.0856C163.459 74.0856 169 72.0777 172.676 67.5839L170.538 65.8342ZM156.658 71.3225V68.5595C152.97 68.5595 150.264 68.107 148.392 67.3533L147.36 69.9164L146.328 72.4796C149.113 73.6007 152.606 74.0856 156.658 74.0856V71.3225ZM147.36 69.9164L148.432 67.3699C146.659 66.6232 145.16 65.3958 143.924 63.5925L141.645 65.1538L139.365 66.7152C141.154 69.3267 143.465 71.2744 146.288 72.463L147.36 69.9164ZM141.645 65.1538H138.882V87.9236H141.645H144.408V65.1538H141.645ZM141.645 87.9236V85.1606H134.66V87.9236V90.6867H141.645V87.9236ZM155.025 65.6528V68.4158C158.594 68.4158 161.751 67.8016 164.226 66.2849L162.782 63.9291L161.338 61.5734C160.063 62.3549 158.049 62.8897 155.025 62.8897V65.6528ZM162.782 63.9291L164.226 66.2849C166.842 64.6813 168.507 62.0769 169.428 58.8902L166.773 58.1233L164.119 57.3564C163.467 59.6127 162.471 60.8788 161.338 61.5734L162.782 63.9291ZM166.773 58.1233L169.422 58.9092C170.348 55.7905 170.761 51.7385 170.761 46.8745H167.998H165.235C165.235 51.5054 164.832 54.9527 164.124 57.3374L166.773 58.1233ZM167.998 46.8745H170.761C170.761 42.2253 170.363 38.358 169.461 35.4071L166.819 36.2153L164.176 37.0235C164.846 39.2131 165.235 42.452 165.235 46.8745H167.998ZM166.819 36.2153L169.463 35.4157C168.528 32.3222 166.838 29.8153 164.215 28.2921L162.827 30.6816L161.44 33.071C162.566 33.725 163.537 34.9073 164.174 37.0149L166.819 36.2153ZM162.827 30.6816L164.231 28.302C161.794 26.8638 158.682 26.2856 155.162 26.2856V29.0487V31.8117C158.172 31.8117 160.171 32.3222 161.423 33.0611L162.827 30.6816ZM155.162 29.0487V26.2856C151.491 26.2856 148.263 26.8787 145.721 28.3257L147.088 30.7269L148.455 33.1282C149.844 32.3376 151.998 31.8117 155.162 31.8117V29.0487ZM147.088 30.7269L145.721 28.3257C143.018 29.8641 141.242 32.3989 140.237 35.559L142.87 36.3967L145.502 37.2345C146.19 35.0725 147.226 33.8275 148.455 33.1282L147.088 30.7269ZM142.87 36.3967L140.228 35.5863C139.295 38.6261 138.882 42.5829 138.882 47.328H141.645H144.408C144.408 42.8201 144.811 39.4893 145.511 37.2072L142.87 36.3967ZM141.645 47.328H138.882C138.882 52.2854 139.246 56.3369 140.068 59.3492L142.733 58.6222L145.399 57.8952C144.769 55.5856 144.408 52.1076 144.408 47.328H141.645ZM142.733 58.6222L140.076 59.3773C140.98 62.5608 142.71 65.1276 145.474 66.596L146.77 64.1559L148.067 61.7158C146.96 61.128 145.999 60.0057 145.391 57.8672L142.733 58.6222ZM146.77 64.1559L145.504 66.6117C148.005 67.9011 151.266 68.4158 155.025 68.4158V65.6528V62.8897C151.649 62.8897 149.407 62.4066 148.037 61.7001L146.77 64.1559ZM208.603 68.9185L207.309 71.3599L208.603 68.9185ZM201.98 61.253L199.404 62.2523L199.408 62.2619L199.412 62.2715L201.98 61.253ZM204.339 29.3662L202.12 27.7191L202.112 27.73L204.339 29.3662ZM231.871 26.1004L230.396 28.4365L230.405 28.4421L230.414 28.4476L231.871 26.1004ZM239.718 48.5074V51.2704H242.481V48.5074H239.718ZM207.015 48.5074V45.7443H204.252V48.5074H207.015ZM210.145 61.7066L207.97 63.4115L207.981 63.4252L207.992 63.4387L210.145 61.7066ZM229.377 63.8838L230.918 66.1767L230.927 66.1708L229.377 63.8838ZM232.234 57.6697V54.9067H229.583L229.474 57.5559L232.234 57.6697ZM239.355 57.6697H242.119V54.9067H239.355V57.6697ZM234.729 68.0114L236.348 70.2508L236.351 70.2479L234.729 68.0114ZM207.106 43.3365L204.344 43.2452L204.25 46.0996H207.106V43.3365ZM232.642 43.3365V46.0996H235.498L235.404 43.2452L232.642 43.3365ZM231.191 34.7185L228.618 35.7253L228.624 35.7414L228.631 35.7574L231.191 34.7185ZM212.503 30.2734L211.317 27.778L211.309 27.7818L211.301 27.7856L212.503 30.2734ZM208.512 34.7185L205.952 33.6795L205.945 33.6955L205.939 33.7116L208.512 34.7185ZM220.532 71.3225V68.5595C215.869 68.5595 212.385 67.7961 209.897 66.4772L208.603 68.9185L207.309 71.3599C210.868 73.2463 215.337 74.0856 220.532 74.0856V71.3225ZM208.603 68.9185L209.897 66.4772C207.514 65.2144 205.724 63.1987 204.549 60.2345L201.98 61.253L199.412 62.2715C201.018 66.3228 203.643 69.4174 207.309 71.3599L208.603 68.9185ZM201.98 61.253L204.556 60.2537C203.367 57.1868 202.702 52.9384 202.702 47.3734H199.939H197.176C197.176 53.2991 197.873 58.3039 199.404 62.2523L201.98 61.253ZM199.939 47.3734H202.702C202.702 39.6144 204.137 34.3069 206.565 31.0024L204.339 29.3662L202.112 27.73C198.674 32.4085 197.176 39.1059 197.176 47.3734H199.939ZM204.339 29.3662L206.557 31.0133C208.781 28.0181 212.916 26.142 219.897 26.142V23.3789V20.6159C212.06 20.6159 205.824 22.7313 202.12 27.7191L204.339 29.3662ZM219.897 23.3789V26.142C224.73 26.142 228.134 27.0082 230.396 28.4365L231.871 26.1004L233.347 23.7643C229.863 21.5639 225.284 20.6159 219.897 20.6159V23.3789ZM231.871 26.1004L230.414 28.4476C232.642 29.8313 234.303 31.9972 235.316 35.1907L237.949 34.3556L240.583 33.5205C239.237 29.2753 236.847 25.9377 233.329 23.7532L231.871 26.1004ZM237.949 34.3556L235.316 35.1907C236.379 38.5461 236.955 42.9566 236.955 48.5074H239.718H242.481C242.481 42.6278 241.878 37.6038 240.583 33.5205L237.949 34.3556ZM239.718 48.5074V45.7443H207.015V48.5074V51.2704H239.718V48.5074ZM207.015 48.5074H204.252C204.252 54.8202 205.298 60.0029 207.97 63.4115L210.145 61.7066L212.319 60.0017C210.819 58.0882 209.778 54.4715 209.778 48.5074H207.015ZM210.145 61.7066L207.992 63.4387C210.84 66.9786 215.346 68.4158 220.713 68.4158V65.6528V62.8897C216.223 62.8897 213.683 61.6962 212.298 59.9745L210.145 61.7066ZM220.713 65.6528V68.4158C224.864 68.4158 228.454 67.8339 230.918 66.1767L229.377 63.8838L227.835 61.5909C226.792 62.2923 224.606 62.8897 220.713 62.8897V65.6528ZM229.377 63.8838L230.927 66.1708C233.679 64.305 234.852 61.2502 234.995 57.7836L232.234 57.6697L229.474 57.5559C229.375 59.9555 228.642 61.0435 227.826 61.5968L229.377 63.8838ZM232.234 57.6697V60.4328H239.355V57.6697V54.9067H232.234V57.6697ZM239.355 57.6697H236.592C236.592 61.6624 235.312 64.1744 233.106 65.7749L234.729 68.0114L236.351 70.2479C240.314 67.373 242.119 62.9906 242.119 57.6697H239.355ZM234.729 68.0114L233.11 65.772C230.756 67.4738 226.727 68.5595 220.532 68.5595V71.3225V74.0856C227.158 74.0856 232.594 72.9639 236.347 70.2507L234.729 68.0114ZM207.106 43.3365V46.0996H232.642V43.3365V40.5735H207.106V43.3365ZM232.642 43.3365L235.404 43.2452C235.278 39.4385 234.773 36.1971 233.751 33.6795L231.191 34.7185L228.631 35.7574C229.302 37.4128 229.765 39.9167 229.881 43.4278L232.642 43.3365ZM231.191 34.7185L233.764 33.7116C232.725 31.0549 230.961 29.0006 228.447 27.7856L227.245 30.2734L226.042 32.7611C227.157 33.3 228.025 34.209 228.618 35.7253L231.191 34.7185ZM227.245 30.2734L228.447 27.7856C226.112 26.6569 223.197 26.1949 219.897 26.1949V28.958V31.721C222.765 31.721 224.749 32.136 226.042 32.7611L227.245 30.2734ZM219.897 28.958V26.1949C216.593 26.1949 213.673 26.6581 211.317 27.778L212.503 30.2734L213.69 32.7688C215.023 32.1348 217.032 31.721 219.897 31.721V28.958ZM212.503 30.2734L211.301 27.7856C208.796 28.9962 207.023 31.0388 205.952 33.6795L208.512 34.7185L211.072 35.7574C211.694 34.2252 212.582 33.3044 213.706 32.7611L212.503 30.2734ZM208.512 34.7185L205.939 33.7116C204.959 36.2167 204.47 39.4454 204.344 43.2452L207.106 43.3365L209.867 43.4278C209.984 39.9099 210.432 37.3931 211.085 35.7253L208.512 34.7185ZM272.567 24.4222L275.31 24.0902L275.016 21.6591H272.567V24.4222ZM273.429 31.5434L270.686 31.8754L271.797 41.0618L275.905 32.7698L273.429 31.5434ZM279.915 25.0572L280.941 27.6226L280.953 27.6177L280.965 27.6127L279.915 25.0572ZM289.122 23.3789H291.886V20.6159H289.122V23.3789ZM289.122 30.3187V33.0818H291.886V30.3187H289.122ZM273.837 38.6193L271.213 37.7536L271.074 38.1753V38.6193H273.837ZM273.837 70.2793V73.0424H276.6V70.2793H273.837ZM266.852 70.2793H264.089V73.0424H266.852V70.2793ZM266.852 24.4222V21.6591H264.089V24.4222H266.852ZM272.567 24.4222L269.824 24.7541L270.686 31.8754L273.429 31.5434L276.172 31.2114L275.31 24.0902L272.567 24.4222ZM273.429 31.5434L275.905 32.7698C277.278 29.9963 278.989 28.4034 280.941 27.6226L279.915 25.0572L278.889 22.4917C275.398 23.8881 272.784 26.6194 270.953 30.317L273.429 31.5434ZM279.915 25.0572L280.965 27.6127C283.366 26.626 285.791 26.142 288.261 26.142V23.3789V20.6159C285.045 20.6159 281.907 21.2507 278.864 22.5016L279.915 25.0572ZM288.261 23.3789V26.142H289.122V23.3789V20.6159H288.261V23.3789ZM289.122 23.3789H286.359V30.3187H289.122H291.886V23.3789H289.122ZM289.122 30.3187V27.5557H288.125V30.3187V33.0818H289.122V30.3187ZM288.125 30.3187V27.5557C284.457 27.5557 281.066 28.2816 278.01 29.7921L279.234 32.2691L280.459 34.7461C282.664 33.6561 285.2 33.0818 288.125 33.0818V30.3187ZM279.234 32.2691L278.01 29.7921C274.678 31.4391 272.399 34.1587 271.213 37.7536L273.837 38.6193L276.461 39.4849C277.21 37.2135 278.529 35.6997 280.459 34.7461L279.234 32.2691ZM273.837 38.6193H271.074V70.2793H273.837H276.6V38.6193H273.837ZM273.837 70.2793V67.5162H266.852V70.2793V73.0424H273.837V70.2793ZM266.852 70.2793H269.615V24.4222H266.852H264.089V70.2793H266.852ZM266.852 24.4222V27.1852H272.567V24.4222V21.6591H266.852V24.4222ZM312.945 7.41283V4.64977H310.182V7.41283H312.945ZM322.288 7.41283H325.051V4.64977H322.288V7.41283ZM322.288 16.1216V18.8847H325.051V16.1216H322.288ZM312.945 16.1216H310.182V18.8847H312.945V16.1216ZM321.109 70.2793V73.0424H323.872V70.2793H321.109ZM314.124 70.2793H311.361V73.0424H314.124V70.2793ZM314.124 24.4222V21.6591H311.361V24.4222H314.124ZM321.109 24.4222H323.872V21.6591H321.109V24.4222ZM312.945 7.41283V10.1759H322.288V7.41283V4.64977H312.945V7.41283ZM322.288 7.41283H319.525V16.1216H322.288H325.051V7.41283H322.288ZM322.288 16.1216V13.3586H312.945V16.1216V18.8847H322.288V16.1216ZM312.945 16.1216H315.708V7.41283H312.945H310.182V16.1216H312.945ZM321.109 70.2793V67.5162H314.124V70.2793V73.0424H321.109V70.2793ZM314.124 70.2793H316.887V24.4222H314.124H311.361V70.2793H314.124ZM314.124 24.4222V27.1852H321.109V24.4222V21.6591H314.124V24.4222ZM321.109 24.4222H318.346V70.2793H321.109H323.872V24.4222H321.109ZM351.417 70.2793H348.654V73.0424H351.417V70.2793ZM351.417 24.4222V21.6591H348.654V24.4222H351.417ZM357.133 24.4222L359.884 24.172L359.656 21.6591H357.133V24.4222ZM357.722 30.9084L354.971 31.1585L355.818 40.4798L360.169 32.1927L357.722 30.9084ZM385.799 31.0445L383.27 32.1563L385.738 37.7711L388.308 32.2023L385.799 31.0445ZM412.56 27.6879L410.392 29.4001L410.397 29.4071L410.403 29.414L412.56 27.6879ZM416.008 70.2793V73.0424H418.771V70.2793H416.008ZM409.022 70.2793H406.259V73.0424H409.022V70.2793ZM389.927 32.2691L391.971 34.1278L391.978 34.1201L391.985 34.1124L389.927 32.2691ZM387.205 70.2793V73.0424H389.968V70.2793H387.205ZM380.22 70.2793H377.457V73.0424H380.22V70.2793ZM361.124 32.2691L363.169 34.1278L363.176 34.1201L363.182 34.1124L361.124 32.2691ZM358.403 70.2793V73.0424H361.166V70.2793H358.403ZM351.417 70.2793H354.181V24.4222H351.417H348.654V70.2793H351.417ZM351.417 24.4222V27.1852H357.133V24.4222V21.6591H351.417V24.4222ZM357.133 24.4222L354.381 24.6723L354.971 31.1585L357.722 30.9084L360.474 30.6582L359.884 24.172L357.133 24.4222ZM357.722 30.9084L360.169 32.1927C361.161 30.3018 362.64 28.8415 364.696 27.7888L363.437 25.3293L362.178 22.8698C359.155 24.4176 356.823 26.6767 355.276 29.624L357.722 30.9084ZM363.437 25.3293L364.696 27.7888C366.78 26.7221 369.297 26.142 372.328 26.142V23.3789V20.6159C368.584 20.6159 365.175 21.336 362.178 22.8698L363.437 25.3293ZM372.328 23.3789V26.142C375.597 26.142 377.906 26.6929 379.465 27.5616L380.81 25.1479L382.154 22.7342C379.48 21.2443 376.134 20.6159 372.328 20.6159V23.3789ZM380.81 25.1479L379.465 27.5616C380.939 28.3832 382.243 29.8209 383.27 32.1563L385.799 31.0445L388.328 29.9326C386.936 26.7645 384.913 24.2712 382.154 22.7342L380.81 25.1479ZM385.799 31.0445L388.308 32.2023C390.036 28.4582 393.856 26.142 401.175 26.142V23.3789V20.6159C392.71 20.6159 386.279 23.41 383.29 29.8866L385.799 31.0445ZM401.175 23.3789V26.142C406.051 26.142 408.853 27.4516 410.392 29.4001L412.56 27.6879L414.729 25.9758C411.731 22.179 406.944 20.6159 401.175 20.6159V23.3789ZM412.56 27.6879L410.403 29.414C412.141 31.5865 413.245 35.1759 413.245 40.6604H416.008H418.771C418.771 34.5937 417.576 29.5348 414.718 25.9619L412.56 27.6879ZM416.008 40.6604H413.245V70.2793H416.008H418.771V40.6604H416.008ZM416.008 70.2793V67.5162H409.022V70.2793V73.0424H416.008V70.2793ZM409.022 70.2793H411.785V41.0686H409.022H406.259V70.2793H409.022ZM409.022 41.0686H411.785C411.785 36.7405 410.987 32.9803 408.857 30.3492L406.709 32.0877L404.562 33.8262C405.516 35.0052 406.259 37.2323 406.259 41.0686H409.022ZM406.709 32.0877L408.857 30.3492C406.58 27.5372 403.028 26.4671 398.998 26.4671V29.2301V31.9932C402.166 31.9932 403.754 32.828 404.562 33.8262L406.709 32.0877ZM398.998 29.2301V26.4671C394.412 26.4671 390.439 27.5551 387.868 30.4258L389.927 32.2691L391.985 34.1124C393.043 32.9312 395.117 31.9932 398.998 31.9932V29.2301ZM389.927 32.2691L387.882 30.4105C385.388 33.1538 384.442 37.1943 384.442 41.8851H387.205H389.968C389.968 37.7461 390.836 35.3759 391.971 34.1278L389.927 32.2691ZM387.205 41.8851H384.442V70.2793H387.205H389.968V41.8851H387.205ZM387.205 70.2793V67.5162H380.22V70.2793V73.0424H387.205V70.2793ZM380.22 70.2793H382.983V41.0686H380.22H377.457V70.2793H380.22ZM380.22 41.0686H382.983C382.983 36.7405 382.184 32.9803 380.054 30.3492L377.907 32.0877L375.759 33.8262C376.714 35.0052 377.457 37.2323 377.457 41.0686H380.22ZM377.907 32.0877L380.054 30.3492C377.778 27.5372 374.225 26.4671 370.196 26.4671V29.2301V31.9932C373.363 31.9932 374.951 32.828 375.759 33.8262L377.907 32.0877ZM370.196 29.2301V26.4671C365.61 26.4671 361.637 27.5551 359.066 30.4258L361.124 32.2691L363.182 34.1124C364.24 32.9312 366.315 31.9932 370.196 31.9932V29.2301ZM361.124 32.2691L359.08 30.4105C356.586 33.1538 355.64 37.1943 355.64 41.8851H358.403H361.166C361.166 37.7461 362.034 35.3759 363.169 34.1278L361.124 32.2691ZM358.403 41.8851H355.64V70.2793H358.403H361.166V41.8851H358.403ZM358.403 70.2793V67.5162H351.417V70.2793V73.0424H358.403V70.2793ZM452.031 68.9185L450.737 71.3599L452.031 68.9185ZM445.409 61.253L442.833 62.2523L442.836 62.2619L442.84 62.2715L445.409 61.253ZM447.767 29.3662L445.549 27.7191L445.541 27.73L447.767 29.3662ZM475.3 26.1004L473.824 28.4365L473.833 28.4421L473.842 28.4476L475.3 26.1004ZM483.147 48.5074V51.2704H485.91V48.5074H483.147ZM450.443 48.5074V45.7443H447.68V48.5074H450.443ZM453.573 61.7066L451.399 63.4115L451.41 63.4252L451.42 63.4387L453.573 61.7066ZM472.805 63.8838L474.347 66.1767L474.356 66.1708L472.805 63.8838ZM475.663 57.6697V54.9067H473.011L472.902 57.5559L475.663 57.6697ZM482.784 57.6697H485.547V54.9067H482.784V57.6697ZM478.157 68.0114L479.776 70.2508L479.78 70.2479L478.157 68.0114ZM450.534 43.3365L447.773 43.2452L447.678 46.0996H450.534V43.3365ZM476.071 43.3365V46.0996H478.927L478.832 43.2452L476.071 43.3365ZM474.619 34.7185L472.046 35.7253L472.053 35.7414L472.059 35.7574L474.619 34.7185ZM455.932 30.2734L454.745 27.778L454.737 27.7818L454.729 27.7856L455.932 30.2734ZM451.94 34.7185L449.38 33.6795L449.374 33.6955L449.367 33.7116L451.94 34.7185ZM463.96 71.3225V68.5595C459.297 68.5595 455.814 67.7961 453.325 66.4772L452.031 68.9185L450.737 71.3599C454.296 73.2463 458.766 74.0856 463.96 74.0856V71.3225ZM452.031 68.9185L453.325 66.4772C450.942 65.2144 449.153 63.1987 447.977 60.2345L445.409 61.253L442.84 62.2715C444.447 66.3228 447.072 69.4174 450.737 71.3599L452.031 68.9185ZM445.409 61.253L447.985 60.2537C446.795 57.1868 446.131 52.9384 446.131 47.3734H443.368H440.605C440.605 53.2991 441.301 58.3039 442.833 62.2523L445.409 61.253ZM443.368 47.3734H446.131C446.131 39.6144 447.566 34.3069 449.994 31.0024L447.767 29.3662L445.541 27.73C442.103 32.4085 440.605 39.1059 440.605 47.3734H443.368ZM447.767 29.3662L449.986 31.0133C452.21 28.0181 456.345 26.142 463.325 26.142V23.3789V20.6159C455.489 20.6159 449.252 22.7313 445.549 27.7191L447.767 29.3662ZM463.325 23.3789V26.142C468.159 26.142 471.563 27.0082 473.824 28.4365L475.3 26.1004L476.775 23.7643C473.291 21.5639 468.712 20.6159 463.325 20.6159V23.3789ZM475.3 26.1004L473.842 28.4476C476.07 29.8313 477.731 31.9972 478.744 35.1907L481.378 34.3556L484.012 33.5205C482.666 29.2753 480.275 25.9377 476.758 23.7532L475.3 26.1004ZM481.378 34.3556L478.744 35.1907C479.808 38.5461 480.384 42.9566 480.384 48.5074H483.147H485.91C485.91 42.6278 485.306 37.6038 484.012 33.5205L481.378 34.3556ZM483.147 48.5074V45.7443H450.443V48.5074V51.2704H483.147V48.5074ZM450.443 48.5074H447.68C447.68 54.8202 448.726 60.0029 451.399 63.4115L453.573 61.7066L455.748 60.0017C454.247 58.0882 453.207 54.4715 453.207 48.5074H450.443ZM453.573 61.7066L451.42 63.4387C454.269 66.9786 458.774 68.4158 464.142 68.4158V65.6528V62.8897C459.651 62.8897 457.111 61.6962 455.726 59.9745L453.573 61.7066ZM464.142 65.6528V68.4158C468.293 68.4158 471.882 67.8339 474.347 66.1767L472.805 63.8838L471.263 61.5909C470.22 62.2923 468.034 62.8897 464.142 62.8897V65.6528ZM472.805 63.8838L474.356 66.1708C477.108 64.305 478.28 61.2502 478.423 57.7836L475.663 57.6697L472.902 57.5559C472.803 59.9555 472.071 61.0435 471.255 61.5968L472.805 63.8838ZM475.663 57.6697V60.4328H482.784V57.6697V54.9067H475.663V57.6697ZM482.784 57.6697H480.021C480.021 61.6624 478.741 64.1744 476.535 65.7749L478.157 68.0114L479.78 70.2479C483.743 67.373 485.547 62.9906 485.547 57.6697H482.784ZM478.157 68.0114L476.539 65.772C474.184 67.4738 470.156 68.5595 463.96 68.5595V71.3225V74.0856C470.586 74.0856 476.022 72.9639 479.776 70.2507L478.157 68.0114ZM450.534 43.3365V46.0996H476.071V43.3365V40.5735H450.534V43.3365ZM476.071 43.3365L478.832 43.2452C478.707 39.4385 478.201 36.1971 477.18 33.6795L474.619 34.7185L472.059 35.7574C472.731 37.4128 473.193 39.9167 473.309 43.4278L476.071 43.3365ZM474.619 34.7185L477.192 33.7116C476.153 31.0549 474.389 29.0006 471.876 27.7856L470.673 30.2734L469.471 32.7611C470.586 33.3 471.453 34.209 472.046 35.7253L474.619 34.7185ZM470.673 30.2734L471.876 27.7856C469.54 26.6569 466.626 26.1949 463.325 26.1949V28.958V31.721C466.193 31.721 468.178 32.136 469.471 32.7611L470.673 30.2734ZM463.325 28.958V26.1949C460.021 26.1949 457.101 26.6581 454.745 27.778L455.932 30.2734L457.118 32.7688C458.452 32.1348 460.461 31.721 463.325 31.721V28.958ZM455.932 30.2734L454.729 27.7856C452.225 28.9962 450.452 31.0388 449.38 33.6795L451.94 34.7185L454.501 35.7574C455.122 34.2252 456.01 33.3044 457.134 32.7611L455.932 30.2734ZM451.94 34.7185L449.367 33.7116C448.387 36.2167 447.898 39.4454 447.773 43.2452L450.534 43.3365L453.296 43.4278C453.412 39.9099 453.861 37.3931 454.513 35.7253L451.94 34.7185ZM510.28 70.2793H507.517V73.0424H510.28V70.2793ZM510.28 24.4222V21.6591H507.517V24.4222H510.28ZM515.995 24.4222L518.749 24.1958L518.54 21.6591H515.995V24.4222ZM516.539 31.0445L513.786 31.2708L514.544 40.5017L518.967 32.3638L516.539 31.0445ZM522.527 25.1479L523.688 27.6548L523.701 27.649L523.714 27.6431L522.527 25.1479ZM545.206 27.7787L543.096 29.5625L543.106 29.5742L543.116 29.5858L545.206 27.7787ZM548.971 70.2793V73.0424H551.734V70.2793H548.971ZM541.985 70.2793H539.222V73.0424H541.985V70.2793ZM539.355 32.2691L537.25 34.0595L537.264 34.0764L537.279 34.0931L539.355 32.2691ZM517.265 70.2793V73.0424H520.028V70.2793H517.265ZM510.28 70.2793H513.043V24.4222H510.28H507.517V70.2793H510.28ZM510.28 24.4222V27.1852H515.995V24.4222V21.6591H510.28V24.4222ZM515.995 24.4222L513.241 24.6485L513.786 31.2708L516.539 31.0445L519.293 30.8181L518.749 24.1958L515.995 24.4222ZM516.539 31.0445L518.967 32.3638C520.242 30.0175 521.83 28.5161 523.688 27.6548L522.527 25.1479L521.365 22.6409C518.264 24.0778 515.86 26.5074 514.112 29.7251L516.539 31.0445ZM522.527 25.1479L523.714 27.6431C525.672 26.7117 528.596 26.142 532.687 26.142V23.3789V20.6159C528.19 20.6159 524.341 21.2254 521.34 22.6527L522.527 25.1479ZM532.687 23.3789V26.142C538.172 26.142 541.368 27.5182 543.096 29.5625L545.206 27.7787L547.316 25.9949C544.085 22.1728 538.934 20.6159 532.687 20.6159V23.3789ZM545.206 27.7787L543.116 29.5858C544.96 31.7192 546.208 35.759 546.208 42.4294H548.971H551.734C551.734 35.3713 550.471 29.644 547.296 25.9715L545.206 27.7787ZM548.971 42.4294H546.208V70.2793H548.971H551.734V42.4294H548.971ZM548.971 70.2793V67.5162H541.985V70.2793V73.0424H548.971V70.2793ZM541.985 70.2793H544.748V42.4294H541.985H539.222V70.2793H541.985ZM541.985 42.4294H544.748C544.748 37.4611 543.865 33.2164 541.43 30.4452L539.355 32.2691L537.279 34.0931C538.351 35.3133 539.222 37.8421 539.222 42.4294H541.985ZM539.355 32.2691L541.459 30.4787C538.982 27.5673 535.103 26.4671 530.646 26.4671V29.2301V31.9932C534.353 31.9932 536.28 32.919 537.25 34.0595L539.355 32.2691ZM530.646 29.2301V26.4671C525.551 26.4671 521.206 27.5543 518.382 30.4204L520.35 32.3598L522.318 34.2993C523.605 32.9925 526.125 31.9932 530.646 31.9932V29.2301ZM520.35 32.3598L518.382 30.4204C515.568 33.2757 514.502 37.6518 514.502 42.7922H517.265H520.028C520.028 38.1957 521.019 35.6169 522.318 34.2993L520.35 32.3598ZM517.265 42.7922H514.502V70.2793H517.265H520.028V42.7922H517.265ZM517.265 70.2793V67.5162H510.28V70.2793V73.0424H517.265V70.2793ZM599.599 29.8198V32.5828H602.362V29.8198H599.599ZM588.351 29.8198V27.0567H585.588V29.8198H588.351ZM589.983 63.657L588.003 65.5838L588.029 65.611L588.057 65.6374L589.983 63.657ZM598.103 65.1538L598.387 67.9022L598.427 67.898L598.468 67.8926L598.103 65.1538ZM600.597 64.791H603.36V61.5507L600.161 62.0626L600.597 64.791ZM600.597 70.8236L601.119 73.5369L603.36 73.1059V70.8236H600.597ZM597.83 71.2318L597.517 68.4866L597.478 68.491L597.44 68.4965L597.83 71.2318ZM581.365 29.8198H584.128V27.0567H581.365V29.8198ZM573.11 29.8198H570.347V32.5828H573.11V29.8198ZM573.11 24.2861V21.523H570.347V24.2861H573.11ZM581.365 24.2861V27.0491H584.128V24.2861H581.365ZM581.365 11.7219V8.95881H578.602V11.7219H581.365ZM588.305 11.7219H591.068V8.95881H588.305V11.7219ZM588.305 24.2861H585.542V27.0491H588.305V24.2861ZM599.599 24.2861H602.362V21.523H599.599V24.2861ZM599.599 29.8198V27.0567H588.351V29.8198V32.5828H599.599V29.8198ZM588.351 29.8198H585.588V58.1233H588.351H591.114V29.8198H588.351ZM588.351 58.1233H585.588C585.588 60.9728 586.172 63.702 588.003 65.5838L589.983 63.657L591.964 61.7302C591.618 61.3743 591.114 60.4144 591.114 58.1233H588.351ZM589.983 63.657L588.057 65.6374C589.918 67.4489 592.562 68.0529 595.336 68.0529V65.2899V62.5268C593.21 62.5268 592.286 62.0423 591.91 61.6767L589.983 63.657ZM595.336 65.2899V68.0529C596.389 68.0529 597.407 68.0036 598.387 67.9022L598.103 65.1538L597.818 62.4054C597.044 62.4855 596.217 62.5268 595.336 62.5268V65.2899ZM598.103 65.1538L598.468 67.8926C599.394 67.7691 600.25 67.6447 601.034 67.5193L600.597 64.791L600.161 62.0626C599.433 62.1791 598.625 62.2966 597.737 62.415L598.103 65.1538ZM600.597 64.791H597.834V70.8236H600.597H603.36V64.791H600.597ZM600.597 70.8236L600.076 68.1103C599.376 68.2447 598.526 68.3712 597.517 68.4866L597.83 71.2318L598.144 73.977C599.251 73.8505 600.246 73.7049 601.119 73.5369L600.597 70.8236ZM597.83 71.2318L597.44 68.4965C596.552 68.6234 595.405 68.6956 593.975 68.6956V71.4586V74.2217C595.569 74.2217 596.993 74.1426 598.221 73.9671L597.83 71.2318ZM593.975 71.4586V68.6956C590.293 68.6956 588.011 67.6686 586.589 66.0583C585.11 64.3822 584.128 61.5865 584.128 57.1708H581.365H578.602C578.602 62.2803 579.722 66.6285 582.446 69.715C585.228 72.8673 589.25 74.2217 593.975 74.2217V71.4586ZM581.365 57.1708H584.128V29.8198H581.365H578.602V57.1708H581.365ZM581.365 29.8198V27.0567H573.11V29.8198V32.5828H581.365V29.8198ZM573.11 29.8198H575.873V24.2861H573.11H570.347V29.8198H573.11ZM573.11 24.2861V27.0491H581.365V24.2861V21.523H573.11V24.2861ZM581.365 24.2861H584.128V11.7219H581.365H578.602V24.2861H581.365ZM581.365 11.7219V14.4849H588.305V11.7219V8.95881H581.365V11.7219ZM588.305 11.7219H585.542V24.2861H588.305H591.068V11.7219H588.305ZM588.305 24.2861V27.0491H599.599V24.2861V21.523H588.305V24.2861ZM599.599 24.2861H596.836V29.8198H599.599H602.362V24.2861H599.599ZM630.951 36.8049V39.568H633.714V36.8049H630.951ZM624.646 36.8049H621.883V39.568H624.646V36.8049ZM656.352 26.8261L654.672 29.0204L654.683 29.0285L656.352 26.8261ZM665.378 65.426H668.141V62.4231L665.148 62.6725L665.378 65.426ZM665.378 70.9597L666.333 73.5524L668.141 72.8863V70.9597H665.378ZM656.851 69.5989L655.018 71.6666L655.029 71.6769L655.041 71.6869L656.851 69.5989ZM654.855 64.927H657.618V56.6047L652.64 63.2745L654.855 64.927ZM648.459 69.6443L647.419 67.0847L647.409 67.0888L648.459 69.6443ZM627.232 67.7392L625.407 69.8144L625.414 69.8201L625.42 69.8257L627.232 67.7392ZM627.957 46.6477L629.485 48.95L629.49 48.9467L627.957 46.6477ZM653.857 43.3819V46.1449H656.62V43.3819H653.857ZM651.271 30.9537L649.632 33.1781L649.645 33.1875L649.658 33.1968L651.271 30.9537ZM633.627 30.863L635.151 33.168L635.164 33.1591L635.178 33.15L633.627 30.863ZM653.902 48.5527H656.665V45.7897H653.902V48.5527ZM633.491 50.5938L634.947 52.9425L634.956 52.9369L633.491 50.5938ZM650.455 63.2941L648.895 61.0138L648.888 61.0186L648.881 61.0235L650.455 63.2941ZM630.951 36.8049V34.0419H624.646V36.8049V39.568H630.951V36.8049ZM624.646 36.8049H627.409C627.409 32.8705 628.636 30.4351 630.693 28.9087L629.046 26.6901L627.399 24.4714C623.589 27.2994 621.883 31.6073 621.883 36.8049H624.646ZM629.046 26.6901L630.693 28.9087C632.924 27.2526 636.731 26.1873 642.608 26.1873V23.4243V20.6612C636.269 20.6612 631.034 21.7731 627.399 24.4714L629.046 26.6901ZM642.608 23.4243V26.1873C648.567 26.1873 652.418 27.295 654.672 29.0204L656.352 26.8261L658.031 24.6319C654.358 21.8214 649.047 20.6612 642.608 20.6612V23.4243ZM656.352 26.8261L654.683 29.0285C656.813 30.6422 658.079 33.2068 658.079 37.3039H660.842H663.605C663.605 31.9664 661.877 27.5459 658.02 24.6237L656.352 26.8261ZM660.842 37.3039H658.079V60.7087H660.842H663.605V37.3039H660.842ZM660.842 60.7087H658.079C658.079 61.8387 658.161 62.9009 658.375 63.8384C658.58 64.7424 658.962 65.7801 659.748 66.6058L661.749 64.7002L663.75 62.7947C663.932 62.9854 663.86 63.0404 663.763 62.6137C663.674 62.2208 663.605 61.6047 663.605 60.7087H660.842ZM661.749 64.7002L659.748 66.6058C660.573 67.4716 661.625 67.8787 662.568 68.0673C663.516 68.2569 664.553 68.2674 665.607 68.1795L665.378 65.426L665.148 62.6725C664.389 62.7358 663.913 62.7008 663.652 62.6485C663.385 62.5952 663.53 62.5639 663.75 62.7947L661.749 64.7002ZM665.378 65.426H662.615V70.9597H665.378H668.141V65.426H665.378ZM665.378 70.9597L664.423 68.367C664.016 68.5167 663.769 68.5578 663.652 68.5656L663.836 71.3225L664.02 74.0795C664.81 74.0268 665.591 73.8259 666.333 73.5524L665.378 70.9597ZM663.836 71.3225L663.652 68.5656C663.278 68.5905 662.799 68.6048 662.203 68.6048V71.3679V74.1309C662.877 74.1309 663.486 74.115 664.02 74.0795L663.836 71.3225ZM662.203 71.3679V68.6048C660.504 68.6048 659.412 68.1624 658.66 67.5109L656.851 69.5989L655.041 71.6869C657.011 73.3941 659.487 74.1309 662.203 74.1309V71.3679ZM656.851 69.5989L658.683 67.5312C658.001 66.9263 657.618 66.1504 657.618 64.927H654.855H652.092C652.092 67.5743 653.039 69.9129 655.018 71.6666L656.851 69.5989ZM654.855 64.927L652.64 63.2745C651.479 64.8309 649.786 66.122 647.419 67.0847L648.459 69.6443L649.5 72.2038C652.636 70.9289 655.207 69.0752 657.069 66.5796L654.855 64.927ZM648.459 69.6443L647.409 67.0888C645.083 68.0448 642.307 68.5595 639.025 68.5595V71.3225V74.0856C642.879 74.0856 646.392 73.4815 649.51 72.1998L648.459 69.6443ZM639.025 71.3225V68.5595C634.314 68.5595 631.122 67.4578 629.043 65.6527L627.232 67.7392L625.42 69.8257C628.845 72.7984 633.515 74.0856 639.025 74.0856V71.3225ZM627.232 67.7392L629.056 65.6641C627.023 63.8765 625.867 61.2864 625.867 57.4883H623.104H620.341C620.341 62.5199 621.937 66.7638 625.407 69.8144L627.232 67.7392ZM623.104 57.4883H625.867C625.867 53.0153 627.253 50.4308 629.485 48.95L627.957 46.6477L626.43 44.3454C622.19 47.1585 620.341 51.801 620.341 57.4883H623.104ZM627.957 46.6477L629.49 48.9467C632.041 47.2459 636.794 46.1449 644.332 46.1449V43.3819V40.6188C636.569 40.6188 630.405 41.6951 626.425 44.3487L627.957 46.6477ZM644.332 43.3819V46.1449H653.857V43.3819V40.6188H644.332V43.3819ZM653.857 43.3819H656.62V37.2585H653.857H651.094V43.3819H653.857ZM653.857 37.2585H656.62C656.62 33.784 655.59 30.6567 652.885 28.7107L651.271 30.9537L649.658 33.1968C650.4 33.7303 651.094 34.8062 651.094 37.2585H653.857ZM651.271 30.9537L652.911 28.7293C650.446 26.913 646.798 26.2856 642.608 26.2856V29.0487V31.8117C646.522 31.8117 648.65 32.4544 649.632 33.1781L651.271 30.9537ZM642.608 29.0487V26.2856C638.292 26.2856 634.582 26.8776 632.077 28.576L633.627 30.863L635.178 33.15C636.241 32.4293 638.518 31.8117 642.608 31.8117V29.0487ZM633.627 30.863L632.104 28.558C629.317 30.4001 628.188 33.4078 628.188 36.8049H630.951H633.714C633.714 34.6382 634.369 33.6846 635.151 33.168L633.627 30.863ZM653.902 56.445H656.665V48.5527H653.902H651.139V56.445H653.902ZM653.902 48.5527V45.7897H644.286V48.5527V51.3158H653.902V48.5527ZM644.286 48.5527V45.7897C639.16 45.7897 634.895 46.4583 632.027 48.2508L633.491 50.5938L634.956 52.9369C636.442 52.0079 639.374 51.3158 644.286 51.3158V48.5527ZM633.491 50.5938L632.036 48.2452C628.862 50.2121 627.508 53.5027 627.508 57.3522H630.271H633.034C633.034 54.8515 633.826 53.6366 634.947 52.9425L633.491 50.5938ZM630.271 57.3522H627.508C627.508 60.7325 628.689 63.6597 631.288 65.6961L632.992 63.5209L634.696 61.3458C633.667 60.5397 633.034 59.3544 633.034 57.3522H630.271ZM632.992 63.5209L631.288 65.6961C633.763 67.6348 637.025 68.4158 640.703 68.4158V65.6528V62.8897C637.729 62.8897 635.85 62.2495 634.696 61.3458L632.992 63.5209ZM640.703 65.6528V68.4158C645.219 68.4158 649.112 67.5872 652.029 65.5648L650.455 63.2941L648.881 61.0235C647.262 62.1459 644.654 62.8897 640.703 62.8897V65.6528ZM650.455 63.2941L652.015 65.5745C655.131 63.443 656.665 60.2698 656.665 56.445H653.902H651.139C651.139 58.6075 650.376 60.0004 648.895 61.0138L650.455 63.2941ZM691.15 70.2793H688.387V73.0424H691.15V70.2793ZM691.15 4.91813V2.15508H688.387V4.91813H691.15ZM698.136 4.91813H700.899V2.15508H698.136V4.91813ZM698.136 70.2793V73.0424H700.899V70.2793H698.136ZM691.15 70.2793H693.914V4.91813H691.15H688.387V70.2793H691.15ZM691.15 4.91813V7.68118H698.136V4.91813V2.15508H691.15V4.91813ZM698.136 4.91813H695.373V70.2793H698.136H700.899V4.91813H698.136ZM698.136 70.2793V67.5162H691.15V70.2793V73.0424H698.136V70.2793Z" fill="#FFF9E2" mask="url(#path-1-outside-1_3083_68)"/>
</g>
<defs>
<filter id="filter0_g_3083_68" x="-0.000884295" y="9.2268e-05" width="703.055" height="92.8416" filterUnits="userSpaceOnUse" color-interpolation-filters="sRGB">
<feFlood flood-opacity="0" result="BackgroundImageFix"/>
<feBlend mode="normal" in="SourceGraphic" in2="BackgroundImageFix" result="shape"/>
<feTurbulence type="fractalNoise" baseFrequency="0.055339228361845016 0.055339228361845016" numOctaves="3" seed="1758" />
<feDisplacementMap in="shape" scale="4.3103623390197754" xChannelSelector="R" yChannelSelector="G" result="displacedImage" width="100%" height="100%" />
<feMerge result="effect1_texture_3083_68">
<feMergeNode in="displacedImage"/>
</feMerge>
</filter>
</defs>
</svg>
