<svg xmlns="http://www.w3.org/2000/svg" version="1.1" xmlns:xlink="http://www.w3.org/1999/xlink" width="147" height="147"><svg xmlns="http://www.w3.org/2000/svg" version="1.1" xmlns:xlink="http://www.w3.org/1999/xlink" width="147" height="147"><svg width="147" height="147" viewBox="0 0 147 147" fill="none" xmlns="http://www.w3.org/2000/svg">
<rect width="146.086" height="146.086" rx="20" fill="#FBF7E9"></rect>
<g filter="url(#filter0_d_2504_51)">
<path d="M69.7885 11.4494C71.5762 9.7353 74.3973 9.7353 76.1849 11.4494L105.708 39.7575C108.714 42.6393 106.674 47.7141 102.51 47.7141H43.4632C39.2993 47.7141 37.2595 42.6393 40.265 39.7575L69.7885 11.4494Z" fill="#869E86"></path>
<path d="M70.9903 26.4118C72.7643 24.7347 75.5367 24.7268 77.3203 26.3937L122.85 68.9469C125.913 71.8097 123.887 76.944 119.695 76.944H29.1536C24.9739 76.944 22.9417 71.8364 25.979 68.965L70.9903 26.4118Z" fill="#869E86"></path>
<path d="M70.8952 41.5913C72.705 39.8564 75.5681 39.8811 77.3478 41.6469L132.035 95.9085C134.964 98.8143 132.906 103.81 128.78 103.81H17.4868C13.3226 103.81 11.2829 98.7345 14.2891 95.8529L70.8952 41.5913Z" fill="#869E86"></path>
<rect x="57.4766" y="87.6875" width="30.0368" height="46.4238" rx="10.3973" fill="url(#paint0_linear_2504_51)"></rect>
</g>
<defs>
<filter id="filter0_d_2504_51" x="11.2555" y="10.1641" width="123.755" height="130.547" filterUnits="userSpaceOnUse" color-interpolation-filters="sRGB">
<feFlood flood-opacity="0" result="BackgroundImageFix"></feFlood>
<feColorMatrix in="SourceAlpha" type="matrix" values="0 0 0 0 0 0 0 0 0 0 0 0 0 0 0 0 0 0 127 0" result="hardAlpha"></feColorMatrix>
<feOffset dy="5"></feOffset>
<feGaussianBlur stdDeviation="0.8"></feGaussianBlur>
<feComposite in2="hardAlpha" operator="out"></feComposite>
<feColorMatrix type="matrix" values="0 0 0 0 0.172326 0 0 0 0 0.172326 0 0 0 0 0.172326 0 0 0 0.39 0"></feColorMatrix>
<feBlend mode="normal" in2="BackgroundImageFix" result="effect1_dropShadow_2504_51"></feBlend>
<feBlend mode="normal" in="SourceGraphic" in2="effect1_dropShadow_2504_51" result="shape"></feBlend>
</filter>
<linearGradient id="paint0_linear_2504_51" x1="72.4949" y1="87.6875" x2="72.4949" y2="134.111" gradientUnits="userSpaceOnUse">
<stop offset="0.572115" stop-color="#869E86"></stop>
<stop offset="1" stop-color="#869E86" stop-opacity="0.5"></stop>
</linearGradient>
</defs>
</svg></svg><style>@media (prefers-color-scheme: light) { :root { filter: none; } }
@media (prefers-color-scheme: dark) { :root { filter: none; } }
</style></svg>