<svg width="93" height="125" viewBox="0 0 93 125" fill="none" xmlns="http://www.w3.org/2000/svg">
<ellipse cx="32.4721" cy="3.86878" rx="32.4721" ry="3.86878" transform="matrix(1 0 0 -1 14.4766 113.859)" fill="#C8CDB8"/>
<path d="M14.4748 109.99L48.0863 113.375L79.419 109.99C79.419 109.99 82.8644 114.603 82.2675 117.728C81.8693 119.812 79.419 122.564 79.419 122.564C79.419 122.564 60.3547 124.447 48.0863 124.498C34.9302 124.553 14.4748 122.564 14.4748 122.564C14.4748 122.564 12.5198 119.743 12.196 117.728C11.7003 114.642 14.4748 109.99 14.4748 109.99Z" fill="#94A591"/>
<g filter="url(#filter0_d_2450_594)">
<path d="M46.9493 9.40234L64.6096 56.3113L46.3797 57.2785L29.2891 56.3113L46.9493 9.40234Z" fill="#FDFDFD"/>
<path d="M46.95 109.99L64.0406 57.7617L46.95 58.4871L29.8594 57.7617L46.95 109.99Z" fill="#FDFDFD"/>
<path d="M36.0986 29.5469L17.0449 55.3438H6.5L45.2383 6.5L36.0986 29.5469Z" fill="#FDFDFD"/>
<path d="M16.1807 56.9756L31.0791 73.7939L45.2324 111.923L7.63281 56.793H16.1807V56.9756Z" fill="#FDFDFD"/>
<path d="M56.6631 29.5469L75.7168 55.3438H86.2617L47.5234 6.5L56.6631 29.5469Z" fill="#FDFDFD"/>
<path d="M76.5732 56.9756L61.668 73.8018L47.5176 111.923L85.1172 56.793H76.5732V56.9756Z" fill="#FDFDFD"/>
</g>
<defs>
<filter id="filter0_d_2450_594" x="0" y="0" width="92.7617" height="118.422" filterUnits="userSpaceOnUse" color-interpolation-filters="sRGB">
<feFlood flood-opacity="0" result="BackgroundImageFix"/>
<feColorMatrix in="SourceAlpha" type="matrix" values="0 0 0 0 0 0 0 0 0 0 0 0 0 0 0 0 0 0 127 0" result="hardAlpha"/>
<feOffset/>
<feGaussianBlur stdDeviation="3.25"/>
<feComposite in2="hardAlpha" operator="out"/>
<feColorMatrix type="matrix" values="0 0 0 0 1 0 0 0 0 0.934001 0 0 0 0 0.695388 0 0 0 0.48 0"/>
<feBlend mode="normal" in2="BackgroundImageFix" result="effect1_dropShadow_2450_594"/>
<feBlend mode="normal" in="SourceGraphic" in2="effect1_dropShadow_2450_594" result="shape"/>
</filter>
</defs>
</svg>
