<svg width="226" height="250" viewBox="0 0 226 250" fill="none" xmlns="http://www.w3.org/2000/svg">
<path d="M153.983 203.662C172.645 205.559 184.855 208.71 184.855 212.279C184.855 218.078 152.62 222.779 112.855 222.779C73.091 222.779 40.8555 218.078 40.8555 212.279C40.8555 209.032 50.9649 206.128 66.8447 204.202C62.3958 205.354 57.4027 207.192 50.4639 210.135C49.3631 210.427 48.3704 210.725 47.4912 211.028C46.1834 211.479 45.2307 211.907 44.5781 212.279C45.2307 212.652 46.1834 213.079 47.4912 213.53C50.8729 214.696 55.9309 215.795 62.377 216.735C75.2233 218.609 93.0717 219.779 112.855 219.779C132.639 219.779 150.488 218.609 163.334 216.735C169.78 215.795 174.838 214.696 178.22 213.53C179.527 213.08 180.479 212.652 181.132 212.279C180.879 212.135 180.581 211.982 180.234 211.823C180.488 211.808 180.743 211.794 181 211.779C168.032 207.148 161.458 204.87 153.983 203.662ZM113.034 201.779C120.485 201.782 127.67 201.95 134.426 202.259C128.788 202.104 121.89 201.985 113.034 201.779ZM112.988 201.779C104.799 202.076 98.3747 202.146 93.085 202.183C99.3669 201.922 105.999 201.779 112.855 201.779C112.9 201.779 112.944 201.779 112.988 201.779Z" fill="#FBF6E9" fill-opacity="0.55"/>
<path d="M125.838 197.893C182.201 198.851 226 206.047 226 214.783C226 224.172 175.408 231.783 113 231.783C50.5918 231.783 0 224.172 0 214.783C0 206.663 37.8403 199.874 88.4385 198.187C75.5955 199.562 70.3921 201.566 45 203.281C45 203.281 47.1363 203.403 51.0381 203.581C44.7245 204.209 38.8635 204.929 33.543 205.729C23.3899 207.257 15.336 209.054 9.88574 210.992C7.14245 211.968 5.2365 212.919 4.07324 213.774C3.3714 214.29 3.12095 214.632 3.03516 214.783C3.12095 214.934 3.3714 215.276 4.07324 215.792C5.2365 216.647 7.14245 217.598 9.88574 218.574C15.336 220.513 23.3899 222.309 33.543 223.837C53.8034 226.885 81.8974 228.783 113 228.783C144.103 228.783 172.197 226.885 192.457 223.837C202.61 222.309 210.664 220.513 216.114 218.574C218.858 217.598 220.763 216.647 221.927 215.792C222.628 215.276 222.878 214.934 222.964 214.783C222.878 214.632 222.628 214.29 221.927 213.774C220.763 212.919 218.858 211.968 216.114 210.992C210.664 209.054 202.61 207.257 192.457 205.729C181.156 204.029 167.419 202.687 152.081 201.832C141.898 200.267 134.718 198.921 125.838 197.893Z" fill="#FBF6E9" fill-opacity="0.55"/>
<g filter="url(#filter0_d_2450_584)">
<path d="M113.449 66.3105L131.11 121.57L112.88 122.71L95.7891 121.57L113.449 66.3105Z" fill="#FDFAF0"/>
<path d="M113.45 184.807L130.541 123.281L113.45 124.135L96.3594 123.281L113.45 184.807Z" fill="#FDFAF0"/>
<path d="M102.597 90.0479L83.5469 120.432H73L111.738 62.8926L102.597 90.0479Z" fill="#FDFAF0"/>
<path d="M82.6826 122.354L97.584 142.173L111.736 187.085L74.1367 122.141H82.6826V122.354Z" fill="#FDFAF0"/>
<path d="M123.166 90.0508L142.215 120.432H152.762L114.023 62.8926L123.166 90.0508Z" fill="#FDFAF0"/>
<path d="M143.075 122.354L128.174 142.173L114.021 187.085L151.621 122.141H143.075V122.354Z" fill="#FDFAF0"/>
</g>
<path d="M80.9748 184.807L114.586 188.794L145.919 184.807C145.919 184.807 149.364 190.24 148.767 193.922C148.369 196.377 145.919 199.618 145.919 199.618C145.919 199.618 126.855 201.837 114.586 201.897C101.43 201.962 80.9748 199.618 80.9748 199.618C80.9748 199.618 79.0198 196.296 78.696 193.922C78.2003 190.286 80.9748 184.807 80.9748 184.807Z" fill="#94A591"/>
<ellipse cx="32.4721" cy="4.55749" rx="32.4721" ry="4.55749" transform="matrix(1 0 0 -1 80.9766 189.363)" fill="#C8CDB8"/>
<path d="M104.186 92.1751L95.0705 120.768L86.1028 120.768L104.186 92.1751Z" fill="#FFF6D9" fill-opacity="0.4"/>
<path d="M100.347 143.445L95.2201 123.527L84.9986 123.527L100.347 143.445Z" fill="#FFF6D9" fill-opacity="0.4"/>
<path d="M122.935 92.4583L132.051 121.051L141.018 121.051L122.935 92.4583Z" fill="#FFF6D9" fill-opacity="0.4"/>
<path d="M126.778 143.728L131.905 123.81L142.126 123.81L126.778 143.728Z" fill="#FFF6D9" fill-opacity="0.4"/>
<g filter="url(#filter1_d_2450_584)">
<ellipse cx="113.5" cy="153.893" rx="27.5" ry="2" fill="#D9D9D9" fill-opacity="0.08" shape-rendering="crispEdges"/>
</g>
<defs>
<filter id="filter0_d_2450_584" x="10.1066" y="-0.000804901" width="205.548" height="249.978" filterUnits="userSpaceOnUse" color-interpolation-filters="sRGB">
<feFlood flood-opacity="0" result="BackgroundImageFix"/>
<feColorMatrix in="SourceAlpha" type="matrix" values="0 0 0 0 0 0 0 0 0 0 0 0 0 0 0 0 0 0 127 0" result="hardAlpha"/>
<feOffset/>
<feGaussianBlur stdDeviation="31.4467"/>
<feComposite in2="hardAlpha" operator="out"/>
<feColorMatrix type="matrix" values="0 0 0 0 1 0 0 0 0 0.934001 0 0 0 0 0.695388 0 0 0 0.77 0"/>
<feBlend mode="normal" in2="BackgroundImageFix" result="effect1_dropShadow_2450_584"/>
<feBlend mode="normal" in="SourceGraphic" in2="effect1_dropShadow_2450_584" result="shape"/>
</filter>
<filter id="filter1_d_2450_584" x="74.8" y="151.893" width="77.4" height="70.2" filterUnits="userSpaceOnUse" color-interpolation-filters="sRGB">
<feFlood flood-opacity="0" result="BackgroundImageFix"/>
<feColorMatrix in="SourceAlpha" type="matrix" values="0 0 0 0 0 0 0 0 0 0 0 0 0 0 0 0 0 0 127 0" result="hardAlpha"/>
<feMorphology radius="4" operator="dilate" in="SourceAlpha" result="effect1_dropShadow_2450_584"/>
<feOffset dy="55"/>
<feGaussianBlur stdDeviation="3.6"/>
<feComposite in2="hardAlpha" operator="out"/>
<feColorMatrix type="matrix" values="0 0 0 0 0 0 0 0 0 0 0 0 0 0 0 0 0 0 0.2 0"/>
<feBlend mode="normal" in2="BackgroundImageFix" result="effect1_dropShadow_2450_584"/>
<feBlend mode="normal" in="SourceGraphic" in2="effect1_dropShadow_2450_584" result="shape"/>
</filter>
</defs>
</svg>
