<svg width="104" height="127" viewBox="0 0 104 127" fill="none" xmlns="http://www.w3.org/2000/svg">
<path d="M21.5 29.442C21.5 28.9218 21.9218 28.5 22.442 28.5H22.7928C22.9276 28.5 23.0589 28.5421 23.1686 28.6204L25.1463 30.033C26.0397 30.6712 26.7965 31.4817 27.3719 32.4168L28.8712 34.8533C29.9492 36.6049 30.7202 38.5277 31.1512 40.5388C31.7101 43.1472 31.6847 45.8471 31.0768 48.4446L30.2586 51.9405C29.5897 54.7987 28.5143 57.5463 27.0653 60.0992L25.4985 62.8597C24.5095 64.6023 23.8794 66.5252 23.6453 68.5151L23.4893 69.8405C23.1735 72.5255 23.8235 75.2353 25.3232 77.4848C26.422 79.133 27.932 80.466 29.7038 81.3519L31.6209 82.3105C31.8235 82.4118 32.0693 82.3153 32.1488 82.1031C33.0406 79.725 34.3983 77.5489 36.1422 75.7023L36.53 75.2918C37.342 74.432 38.083 73.5078 38.7456 72.5283L40.0718 70.5678C42.3319 67.2268 43.8623 63.4469 44.5633 59.4747C44.8539 57.828 45 56.1592 45 54.4871V50V46.0422C45 46.0142 44.9966 45.9862 44.9898 45.9591C44.8309 45.3235 45.5684 44.8484 46.0814 45.2558L46.625 45.6875L48.75 47.375L53 50.75L53.6522 51.2679C58.871 55.4123 63.6624 60.0679 67.9551 65.1654L69.5 67L70.4323 68.3985C73.7617 73.3926 75.8393 79.1153 76.4892 85.0822C78.8972 107.193 61.3384 126.5 39.097 126.5C17.8084 126.5 0.497466 108.923 1.09973 87.6428L1.17245 85.0736C1.38648 77.5109 3.72576 70.1614 7.92246 63.8663L11.8697 57.9455C12.9548 56.3178 14.1688 54.7798 15.4999 53.3462L17.5999 51.0847C19.1871 49.3754 20.4549 47.3953 21.343 45.2384C22.7519 41.8168 23.1585 38.0651 22.5155 34.4211L22 31.5L21.5141 29.5563C21.5047 29.5189 21.5 29.4805 21.5 29.442Z" fill="url(#paint0_linear_2474_776)"/>
<path d="M74.7922 120.914L64.2992 124L69.8992 119L74.1285 114.734C78.7848 110.037 81.8043 103.965 82.7397 97.4172C83.1112 94.8167 83.1482 92.1792 82.85 89.5693L82.2111 83.9791C81.6078 78.7008 80.0837 73.5692 77.7078 68.8175C74.8025 63.007 70.6852 57.887 65.6333 53.8027L58.5362 48.065C56.3168 46.2707 54.2766 44.2654 52.4442 42.0773L49.4674 38.5225C47.2494 35.8738 45.6444 32.7676 44.7672 29.426C44.2573 27.4836 43.9992 25.4837 43.9992 23.4755V22.4965C43.9992 20.1637 44.2729 17.839 44.8148 15.57L45.1651 14.1029C45.7826 11.5172 46.8702 9.06707 48.3737 6.8747L50.226 4.17366C51.1907 2.76693 52.5126 1.64241 54.0558 0.915646L55.8414 0.0747042C55.9458 0.0255093 56.0599 0 56.1753 0C56.3832 0 56.5826 0.0825798 56.7296 0.229573L57.1225 0.622498C57.3703 0.870316 57.553 1.17557 57.6543 1.51109L57.7509 1.83104C57.914 2.3712 57.9423 2.94307 57.8334 3.4967L57.0854 7.30022C56.3142 11.2218 56.7962 15.2866 58.463 18.9192L58.9936 20.0755C60.1869 22.6759 61.8551 25.0307 63.9125 27.0189L69.8992 32.8044L87.1335 47.0546C89.902 49.3437 92.3898 51.9524 94.5452 54.8262C99.2998 61.1658 102.318 68.6364 103.301 76.4996L103.801 80.5003V84.8079C103.801 87.9234 103.403 91.0262 102.616 94.0408L102.487 94.5362C101.374 98.8047 99.4393 102.816 96.7925 106.345C94.4815 109.426 91.6634 112.092 88.4587 114.228L86.9456 115.237C83.2039 117.732 79.1064 119.646 74.7922 120.914Z" fill="url(#paint1_linear_2474_776)"/>
<defs>
<linearGradient id="paint0_linear_2474_776" x1="40.5" y1="27" x2="40.5" y2="126.5" gradientUnits="userSpaceOnUse">
<stop offset="0.461538" stop-color="#F9F5E8"/>
<stop offset="1" stop-color="#EDE9DD" stop-opacity="0.5"/>
</linearGradient>
<linearGradient id="paint1_linear_2474_776" x1="73.9" y1="-3" x2="73.9" y2="124" gradientUnits="userSpaceOnUse">
<stop offset="0.461538" stop-color="#F9F5E8"/>
<stop offset="1" stop-color="#EDE9DD" stop-opacity="0.5"/>
</linearGradient>
</defs>
</svg>
