<svg width="112" height="142" viewBox="0 0 112 142" fill="none" xmlns="http://www.w3.org/2000/svg">
<path d="M52.906 3.92816C54.451 1.93746 57.4584 1.93746 59.0034 3.92816L85.3799 37.9137C87.3477 40.4492 85.5407 44.139 82.3312 44.139H29.5781C26.3686 44.139 24.5616 40.4492 26.5295 37.9137L52.906 3.92816Z" fill="#869E86"/>
<path d="M53.9079 20.7151C55.4475 18.7592 58.4088 18.7509 59.9593 20.6983L99.7554 70.6798C101.768 73.208 99.9681 76.9427 96.7363 76.9427H17.5974C14.3757 76.9427 12.5723 73.2282 14.565 70.6966L53.9079 20.7151Z" fill="#869E86"/>
<path d="M53.8211 37.7625C55.3824 35.7513 58.4292 35.7766 59.9568 37.8135L107.284 100.917C109.192 103.461 107.377 107.091 104.197 107.091H7.88145C4.6717 107.091 2.86479 103.401 4.83307 100.866L53.8211 37.7625Z" fill="#869E86"/>
<rect x="43" y="89" width="25.0844" height="52.0985" rx="8.68308" fill="url(#paint0_linear_2494_41)"/>
<defs>
<linearGradient id="paint0_linear_2494_41" x1="55.5422" y1="89" x2="55.5422" y2="141.098" gradientUnits="userSpaceOnUse">
<stop offset="0.572115" stop-color="#869E86"/>
<stop offset="1" stop-color="#869E86" stop-opacity="0.5"/>
</linearGradient>
</defs>
</svg>
