<svg width="226" height="34" viewBox="0 0 226 34" fill="none" xmlns="http://www.w3.org/2000/svg">
<path d="M153.983 5.76953C172.645 7.66679 184.855 10.8177 184.855 14.3867C184.855 20.1857 152.62 24.8867 112.855 24.8867C73.091 24.8867 40.8555 20.1857 40.8555 14.3867C40.8555 11.1392 50.9649 8.2356 66.8447 6.30957C62.3958 7.46167 57.4027 9.2994 50.4639 12.2422C49.3631 12.5347 48.3704 12.8326 47.4912 13.1357C46.1834 13.5867 45.2307 14.014 44.5781 14.3867C45.2307 14.7595 46.1834 15.1868 47.4912 15.6377C50.8729 16.8037 55.9309 17.9027 62.377 18.8428C75.2233 20.7162 93.0717 21.8867 112.855 21.8867C132.639 21.8867 150.488 20.7162 163.334 18.8428C169.78 17.9027 174.838 16.8037 178.22 15.6377C179.527 15.187 180.479 14.7594 181.132 14.3867C180.879 14.2423 180.581 14.0898 180.234 13.9307C180.488 13.9158 180.743 13.9019 181 13.8867C168.032 9.25521 161.458 6.97721 153.983 5.76953ZM113.034 3.88672C120.485 3.88936 127.67 4.05723 134.426 4.36621C128.788 4.21187 121.89 4.09229 113.034 3.88672ZM112.988 3.88672C104.799 4.18331 98.3747 4.25357 93.085 4.29004C99.3669 4.02899 105.999 3.88672 112.855 3.88672C112.9 3.88672 112.944 3.88671 112.988 3.88672Z" fill="#FBF6E9" fill-opacity="0.55"/>
<path d="M125.838 0C182.201 0.958889 226 8.15483 226 16.8906C226 26.2795 175.408 33.8906 113 33.8906C50.5918 33.8906 0 26.2795 0 16.8906C0 8.77076 37.8403 1.98112 88.4385 0.293945C75.5955 1.66954 70.3921 3.67299 45 5.38867C45 5.38867 47.1363 5.51057 51.0381 5.68848C44.7245 6.31678 38.8635 7.03648 33.543 7.83691C23.3899 9.36437 15.336 11.1611 9.88574 13.0996C7.14245 14.0754 5.2365 15.0267 4.07324 15.8818C3.3714 16.3978 3.12095 16.7398 3.03516 16.8906C3.12095 17.0414 3.3714 17.3834 4.07324 17.8994C5.2365 18.7546 7.14245 19.7059 9.88574 20.6816C15.336 22.6202 23.3899 24.4169 33.543 25.9443C53.8034 28.9924 81.8974 30.8906 113 30.8906C144.103 30.8906 172.197 28.9924 192.457 25.9443C202.61 24.4169 210.664 22.6202 216.114 20.6816C218.858 19.7059 220.763 18.7546 221.927 17.8994C222.628 17.3839 222.878 17.0416 222.964 16.8906C222.878 16.7396 222.628 16.3973 221.927 15.8818C220.763 15.0267 218.858 14.0754 216.114 13.0996C210.664 11.1611 202.61 9.36437 192.457 7.83691C181.156 6.13681 167.419 4.79427 152.081 3.93945C141.898 2.37416 134.718 1.02792 125.838 0Z" fill="#FBF6E9" fill-opacity="0.55"/>
</svg>
