<svg width="177" height="118" viewBox="0 0 177 118" fill="none" xmlns="http://www.w3.org/2000/svg">
<path d="M164.244 2.43845C164.175 1.7501 165.055 1.40706 165.47 1.96048L168.582 6.10963C170.517 8.68933 172.064 11.5382 173.174 14.5657C175.656 21.3358 175.858 28.7318 173.747 35.6268L171.744 42.169C170.263 47.0077 167.831 51.5023 164.592 55.3898C162.869 57.4574 160.931 59.3364 158.812 60.9952L154.043 64.7273C151.685 66.5728 149.183 68.2268 146.561 69.6733L138.031 74.3794C136.692 75.118 135.526 76.1326 134.608 77.3558C134.559 77.4211 134.597 77.515 134.678 77.5274L136.851 77.8617C139.609 78.286 142.405 78.4197 145.191 78.2605L156.764 77.5992C157.891 77.5348 159.008 77.8386 159.947 78.4648C159.975 78.483 159.978 78.5217 159.955 78.5449L159.901 78.5993C158.974 79.5263 157.895 80.288 156.711 80.8517L153.959 82.1623C150.036 84.0305 145.745 85 141.4 85H137.062C133.062 85 129.105 85.8123 125.429 87.3878C122.169 88.7845 119.189 90.7567 116.629 93.2101L115.588 94.2077C110.941 98.6608 107.52 104.236 105.653 110.395L103.638 117.046C103.556 117.315 103.307 117.5 103.025 117.5H90.9795C90.4641 117.5 90.0695 117.041 90.1467 116.532L90.5442 113.908C91.8369 105.376 94.696 97.157 98.9773 89.6646C102.636 83.2618 107.284 77.4773 112.748 72.5251L114.801 70.6648C118.588 67.2324 121.979 63.3865 124.911 59.1991C128.946 53.4342 132.068 47.0814 134.167 40.3648L135.777 35.2141C135.901 34.8169 136.319 34.5912 136.719 34.7055L137.469 34.9196C138.671 35.2632 139.5 36.3621 139.5 37.6126C139.5 45.4503 137.855 53.2007 134.672 60.3628L133.512 62.972C133.507 62.9852 133.516 63 133.531 63C133.839 63 134.144 62.9281 134.42 62.7901L144.06 57.9698C147.317 56.3413 150.198 54.0497 152.517 51.2423L155.536 47.5877C157.452 45.2686 158.5 42.3545 158.5 39.3465C158.5 37.7948 158.221 36.2558 157.676 34.8029L157.29 33.7724C156.117 30.646 155.789 27.266 156.338 23.9725L156.445 23.3272C156.471 23.1737 156.647 23.0977 156.776 23.184L159.014 24.6761C159.337 24.8915 159.638 25.1383 159.913 25.4129L163.958 29.4582C164.497 29.9971 165.394 29.9083 165.817 29.2741C165.937 29.0946 166.006 28.8864 166.018 28.6711L166.363 22.4594C166.454 20.8241 166.378 19.1838 166.135 17.5641L165 10L164.244 2.43845Z" fill="url(#paint0_linear_2450_581)"/>
<path d="M12.7562 2.43845C12.825 1.7501 11.9447 1.40706 11.5296 1.96048L8.41778 6.10963C6.483 8.68933 4.936 11.5382 3.8259 14.5657C1.34354 21.3358 1.14239 28.7318 3.25311 35.6268L5.25581 42.169C6.73705 47.0077 9.16862 51.5023 12.4082 55.3898C14.1312 57.4574 16.0687 59.3364 18.1883 60.9952L22.9571 64.7273C25.3153 66.5728 27.8172 68.2268 30.4391 69.6733L38.9688 74.3794C40.3077 75.118 41.4744 76.1326 42.3919 77.3558C42.4408 77.4211 42.4025 77.515 42.3219 77.5274L40.1493 77.8617C37.3907 78.286 34.5952 78.4197 31.8088 78.2605L20.2365 77.5992C19.1095 77.5348 17.9921 77.8386 17.0528 78.4648C17.0255 78.483 17.0217 78.5217 17.0449 78.5449L17.0993 78.5993C18.0263 79.5263 19.1049 80.288 20.2885 80.8517L23.0408 82.1623C26.9641 84.0305 31.2549 85 35.6004 85H39.9385C43.9378 85 47.8955 85.8123 51.5714 87.3878C54.8305 88.7845 57.8114 90.7567 60.3714 93.2101L61.4124 94.2077C66.059 98.6608 69.4805 104.236 71.347 110.395L73.3623 117.046C73.4441 117.315 73.6928 117.5 73.9748 117.5H86.0205C86.5359 117.5 86.9305 117.041 86.8533 116.532L86.4558 113.908C85.1631 105.376 82.304 97.157 78.0227 89.6646C74.3639 83.2618 69.7163 77.4773 64.2519 72.5251L62.1991 70.6648C58.4116 67.2324 55.0206 63.3865 52.0894 59.1991C48.0539 53.4342 44.9317 47.0814 42.8327 40.3648L41.2232 35.2141C41.099 34.8169 40.6808 34.5912 40.2806 34.7055L39.5314 34.9196C38.329 35.2632 37.5 36.3621 37.5 37.6126C37.5 45.4503 39.1447 53.2007 42.3279 60.3628L43.4876 62.972C43.4934 62.9852 43.4838 63 43.4694 63C43.1607 63 42.8563 62.9281 42.5802 62.7901L32.9395 57.9698C29.6825 56.3413 26.802 54.0497 24.4828 51.2423L21.4637 47.5877C19.548 45.2686 18.5 42.3545 18.5 39.3465C18.5 37.7948 18.7791 36.2558 19.3239 34.8029L19.7104 33.7724C20.8828 30.646 21.211 27.266 20.6621 23.9725L20.5545 23.3272C20.5289 23.1737 20.3535 23.0977 20.224 23.184L17.9859 24.6761C17.6628 24.8915 17.3617 25.1383 17.0871 25.4129L13.0418 29.4582C12.5029 29.9971 11.6055 29.9083 11.1827 29.2741C11.0631 29.0946 10.9937 28.8864 10.9817 28.6711L10.6366 22.4594C10.5458 20.8241 10.6224 19.1838 10.8654 17.5641L12 10L12.7562 2.43845Z" fill="url(#paint1_linear_2450_581)"/>
<defs>
<linearGradient id="paint0_linear_2450_581" x1="133.5" y1="0" x2="133.5" y2="117.5" gradientUnits="userSpaceOnUse">
<stop offset="0.557692" stop-color="#F7F1E6"/>
<stop offset="1" stop-color="#F7F1E6" stop-opacity="0.7"/>
</linearGradient>
<linearGradient id="paint1_linear_2450_581" x1="43.5" y1="0" x2="43.5" y2="117.5" gradientUnits="userSpaceOnUse">
<stop offset="0.557692" stop-color="#F7F1E6"/>
<stop offset="1" stop-color="#F7F1E6" stop-opacity="0.7"/>
</linearGradient>
</defs>
</svg>
