<svg width="186" height="118" viewBox="0 0 186 118" fill="none" xmlns="http://www.w3.org/2000/svg">
<path d="M173.244 2.43845C173.175 1.7501 174.055 1.40706 174.47 1.96048L177.582 6.10963C179.517 8.68933 181.064 11.5382 182.174 14.5657C184.656 21.3358 184.858 28.7318 182.747 35.6268L180.744 42.169C179.263 47.0077 176.831 51.5023 173.592 55.3898C171.869 57.4574 169.931 59.3364 167.812 60.9952L163.043 64.7273C160.685 66.5728 158.183 68.2268 155.561 69.6733L147.031 74.3794C145.692 75.118 144.526 76.1326 143.608 77.3558C143.559 77.4211 143.597 77.515 143.678 77.5274L145.851 77.8617C148.609 78.286 151.405 78.4197 154.191 78.2605L165.764 77.5992C166.891 77.5348 168.008 77.8386 168.947 78.4648C168.975 78.483 168.978 78.5217 168.955 78.5449L168.901 78.5992C167.974 79.5263 166.895 80.288 165.711 80.8517L162.959 82.1623C159.036 84.0305 154.745 85 150.4 85H146.062C142.062 85 138.105 85.8123 134.429 87.3878C131.169 88.7845 128.189 90.7567 125.629 93.2101L124.588 94.2077C119.941 98.6608 116.52 104.236 114.653 110.395L112.638 117.046C112.556 117.315 112.307 117.5 112.025 117.5H99.9795C99.4641 117.5 99.0695 117.041 99.1467 116.532L99.5442 113.908C100.837 105.376 103.696 97.157 107.977 89.6646C111.636 83.2618 116.284 77.4773 121.748 72.5251L123.801 70.6648C127.588 67.2324 130.979 63.3865 133.911 59.1991C137.946 53.4342 141.068 47.0814 143.167 40.3648L144.777 35.2141C144.901 34.8169 145.319 34.5912 145.719 34.7055L146.469 34.9196C147.671 35.2632 148.5 36.3621 148.5 37.6126C148.5 45.4503 146.855 53.2007 143.672 60.3628L142.512 62.972C142.507 62.9852 142.516 63 142.531 63C142.839 63 143.144 62.9281 143.42 62.7901L153.06 57.9698C156.317 56.3413 159.198 54.0497 161.517 51.2423L164.536 47.5877C166.452 45.2686 167.5 42.3545 167.5 39.3465C167.5 37.7948 167.221 36.2558 166.676 34.8029L166.29 33.7724C165.117 30.646 164.789 27.266 165.338 23.9725L165.445 23.3272C165.471 23.1737 165.647 23.0977 165.776 23.184L168.014 24.6761C168.337 24.8915 168.638 25.1383 168.913 25.4129L172.958 29.4582C173.497 29.9971 174.394 29.9083 174.817 29.2741C174.937 29.0946 175.006 28.8864 175.018 28.6711L175.363 22.4594C175.454 20.8241 175.378 19.1838 175.135 17.5641L174 10L173.244 2.43845Z" fill="url(#paint0_linear_2450_581)"/>
<path d="M12.7562 2.43845C12.825 1.7501 11.9447 1.40706 11.5296 1.96048L8.41778 6.10963C6.483 8.68933 4.936 11.5382 3.8259 14.5657C1.34354 21.3358 1.14239 28.7318 3.2531 35.6268L5.25582 42.169C6.73705 47.0077 9.16861 51.5023 12.4082 55.3898C14.1312 57.4574 16.0687 59.3364 18.1883 60.9952L22.9571 64.7273C25.3153 66.5728 27.8172 68.2268 30.4391 69.6733L38.9688 74.3794C40.3077 75.118 41.4744 76.1326 42.3919 77.3558C42.4408 77.4211 42.4025 77.515 42.3219 77.5274L40.1493 77.8617C37.3907 78.286 34.5952 78.4197 31.8088 78.2605L20.2365 77.5992C19.1095 77.5348 17.9921 77.8386 17.0528 78.4648C17.0255 78.483 17.0217 78.5217 17.0449 78.5449L17.0992 78.5992C18.0263 79.5263 19.1049 80.288 20.2885 80.8517L23.0408 82.1623C26.9641 84.0305 31.2549 85 35.6004 85H39.9385C43.9378 85 47.8955 85.8123 51.5714 87.3878C54.8305 88.7845 57.8114 90.7567 60.3714 93.2101L61.4124 94.2077C66.059 98.6608 69.4805 104.236 71.347 110.395L73.3623 117.046C73.4441 117.315 73.6928 117.5 73.9748 117.5H86.0205C86.5359 117.5 86.9305 117.041 86.8533 116.532L86.4558 113.908C85.1631 105.376 82.304 97.157 78.0227 89.6646C74.3639 83.2618 69.7163 77.4773 64.2519 72.5251L62.1991 70.6648C58.4116 67.2324 55.0206 63.3865 52.0894 59.1991C48.0539 53.4342 44.9317 47.0814 42.8327 40.3648L41.2232 35.2141C41.099 34.8169 40.6808 34.5912 40.2806 34.7055L39.5314 34.9196C38.329 35.2632 37.5 36.3621 37.5 37.6126C37.5 45.4503 39.1447 53.2007 42.3279 60.3628L43.4876 62.972C43.4934 62.9852 43.4838 63 43.4694 63C43.1607 63 42.8563 62.9281 42.5802 62.7901L32.9395 57.9698C29.6825 56.3413 26.802 54.0497 24.4828 51.2423L21.4637 47.5877C19.548 45.2686 18.5 42.3545 18.5 39.3465C18.5 37.7948 18.7791 36.2558 19.3239 34.8029L19.7104 33.7724C20.8827 30.646 21.211 27.266 20.6621 23.9725L20.5545 23.3272C20.5289 23.1737 20.3535 23.0977 20.224 23.184L17.9859 24.6761C17.6628 24.8915 17.3617 25.1383 17.0871 25.4129L13.0418 29.4582C12.5029 29.9971 11.6055 29.9083 11.1827 29.2741C11.0631 29.0946 10.9937 28.8864 10.9817 28.6711L10.6366 22.4594C10.5458 20.8241 10.6224 19.1838 10.8654 17.5641L12 10L12.7562 2.43845Z" fill="url(#paint1_linear_2450_581)"/>
<defs>
<linearGradient id="paint0_linear_2450_581" x1="142.5" y1="0" x2="142.5" y2="117.5" gradientUnits="userSpaceOnUse">
<stop offset="0.557692" stop-color="#F7F1E6"/>
<stop offset="1" stop-color="#F7F1E6" stop-opacity="0.7"/>
</linearGradient>
<linearGradient id="paint1_linear_2450_581" x1="43.5" y1="0" x2="43.5" y2="117.5" gradientUnits="userSpaceOnUse">
<stop offset="0.557692" stop-color="#F7F1E6"/>
<stop offset="1" stop-color="#F7F1E6" stop-opacity="0.7"/>
</linearGradient>
</defs>
</svg>
