<svg width="112" height="176" viewBox="0 0 112 176" fill="none" xmlns="http://www.w3.org/2000/svg">
<g filter="url(#filter0_d_2450_471)">
<path d="M49.0527 13.2598C52.1654 8.11361 59.6315 8.11361 62.7441 13.2598L97.9189 71.416C101.144 76.7477 97.3043 83.5566 91.0732 83.5566H20.7236C14.4926 83.5566 10.6531 76.7477 13.8779 71.416L49.0527 13.2598ZM60.1768 32.0156C58.2313 28.7997 53.5656 28.7997 51.6201 32.0156L31.9092 64.6055C29.8939 67.9377 32.2932 72.1924 36.1875 72.1924H75.6094C79.5037 72.1924 81.9029 67.9377 79.8877 64.6055L60.1768 32.0156Z" fill="#ECEBD7"/>
</g>
<g filter="url(#filter1_d_2450_471)">
<ellipse cx="56.8984" cy="108.943" rx="32" ry="4" fill="#D9D9D9"/>
</g>
<path d="M23.5163 95.2681C24.9655 92.0287 28.183 89.9434 31.7317 89.9434H77.7701C81.2134 89.9434 84.3549 91.908 85.8621 95.0038L97.6988 119.317C99.639 123.302 96.7367 127.943 92.3041 127.943H18.1557C13.8074 127.943 10.9031 123.462 12.6788 119.493L23.5163 95.2681Z" fill="url(#paint0_linear_2450_471)"/>
<defs>
<filter id="filter0_d_2450_471" x="3.31094" y="0.000391006" width="105.175" height="92.9562" filterUnits="userSpaceOnUse" color-interpolation-filters="sRGB">
<feFlood flood-opacity="0" result="BackgroundImageFix"/>
<feColorMatrix in="SourceAlpha" type="matrix" values="0 0 0 0 0 0 0 0 0 0 0 0 0 0 0 0 0 0 127 0" result="hardAlpha"/>
<feOffset/>
<feGaussianBlur stdDeviation="4.7"/>
<feComposite in2="hardAlpha" operator="out"/>
<feColorMatrix type="matrix" values="0 0 0 0 0.92549 0 0 0 0 0.921569 0 0 0 0 0.843137 0 0 0 0.52 0"/>
<feBlend mode="normal" in2="BackgroundImageFix" result="effect1_dropShadow_2450_471"/>
<feBlend mode="normal" in="SourceGraphic" in2="effect1_dropShadow_2450_471" result="shape"/>
</filter>
<filter id="filter1_d_2450_471" x="-0.00156212" y="104.943" width="111.8" height="70.9" filterUnits="userSpaceOnUse" color-interpolation-filters="sRGB">
<feFlood flood-opacity="0" result="BackgroundImageFix"/>
<feColorMatrix in="SourceAlpha" type="matrix" values="0 0 0 0 0 0 0 0 0 0 0 0 0 0 0 0 0 0 127 0" result="hardAlpha"/>
<feMorphology radius="7" operator="dilate" in="SourceAlpha" result="effect1_dropShadow_2450_471"/>
<feOffset dx="-1" dy="39"/>
<feGaussianBlur stdDeviation="8.45"/>
<feComposite in2="hardAlpha" operator="out"/>
<feColorMatrix type="matrix" values="0 0 0 0 0 0 0 0 0 0 0 0 0 0 0 0 0 0 0.2 0"/>
<feBlend mode="normal" in2="BackgroundImageFix" result="effect1_dropShadow_2450_471"/>
<feBlend mode="normal" in="SourceGraphic" in2="effect1_dropShadow_2450_471" result="shape"/>
</filter>
<linearGradient id="paint0_linear_2450_471" x1="76.3984" y1="124.143" x2="65.4618" y2="89.6066" gradientUnits="userSpaceOnUse">
<stop stop-color="#9DB099"/>
<stop offset="1" stop-color="#859A83"/>
</linearGradient>
</defs>
</svg>
