<svg width="167" height="95" viewBox="0 0 167 95" fill="none" xmlns="http://www.w3.org/2000/svg">
<path d="M83.4303 0C83.4303 0 107 24.4313 107 53.3499C99.5965 108.196 64.7972 98.2237 59.3394 54.8457C55.6381 25.4285 83.4303 0 83.4303 0Z" fill="url(#paint0_linear_2450_529)"/>
<path d="M84.0693 1.43848C84.7089 2.15753 85.6244 3.2188 86.7236 4.58301C88.9225 7.31188 91.8548 11.2514 94.7871 16.0898C100.653 25.7681 106.49 39.0007 106.499 53.3184C104.653 66.9668 101.11 76.526 96.791 82.5293C92.4746 88.5286 87.4181 90.941 82.4912 90.4346C77.5381 89.9254 72.5607 86.4524 68.4629 80.3457C64.3703 74.2466 61.193 65.5688 59.8359 54.7832C58.0067 40.2443 63.9589 26.6551 70.417 16.6631C73.6421 11.6731 76.9828 7.59575 79.5176 4.7666C80.7845 3.35251 81.8497 2.25093 82.5967 1.50391C82.9361 1.16448 83.21 0.897986 83.4072 0.708984C83.5725 0.888144 83.7964 1.13161 84.0693 1.43848Z" stroke="#F7E6BD" stroke-opacity="0.51"/>
<mask id="path-3-inside-1_2450_529" fill="white">
<path d="M135.611 18.498C135.621 18.5974 138.3 46.3513 119.988 64.6982C114.785 68.6794 109.908 71.7434 105.413 73.999C109.241 68.9534 112.322 61.4751 113.999 51.2637C113.999 41.487 110.013 32.3343 105.32 24.9453C120.44 19.1712 135.611 18.498 135.611 18.498Z"/>
</mask>
<path d="M135.611 18.498C135.621 18.5974 138.3 46.3513 119.988 64.6982C114.785 68.6794 109.908 71.7434 105.413 73.999C109.241 68.9534 112.322 61.4751 113.999 51.2637C113.999 41.487 110.013 32.3343 105.32 24.9453C120.44 19.1712 135.611 18.498 135.611 18.498Z" fill="url(#paint1_linear_2450_529)"/>
<path d="M135.611 18.498L136.607 18.4013L136.515 17.457L135.567 17.499L135.611 18.498ZM119.988 64.6982L120.596 65.4925L120.649 65.4519L120.696 65.4047L119.988 64.6982ZM105.413 73.999L104.616 73.3947L105.862 74.8928L105.413 73.999ZM113.999 51.2637L114.986 51.4257L114.999 51.3452V51.2637H113.999ZM105.32 24.9453L104.964 24.0111L103.82 24.4479L104.476 25.4814L105.32 24.9453ZM135.611 18.498L134.616 18.5948C134.616 18.5938 135.282 25.4593 133.685 34.5829C132.088 43.7111 128.24 55.0153 119.28 63.9918L119.988 64.6982L120.696 65.4047C130.048 56.0342 134.017 44.288 135.655 34.9277C137.294 25.5628 136.616 18.5016 136.607 18.4013L135.611 18.498ZM119.988 64.6982L119.381 63.904C114.219 67.8532 109.395 70.8819 104.965 73.1052L105.413 73.999L105.862 74.8928C110.421 72.6049 115.35 69.5057 120.596 65.4925L119.988 64.6982ZM105.413 73.999L106.21 74.6034C110.164 69.3902 113.292 61.7435 114.986 51.4257L113.999 51.2637L113.012 51.1017C111.353 61.2068 108.317 68.5166 104.616 73.3947L105.413 73.999ZM113.999 51.2637H114.999C114.999 41.2225 110.91 31.8809 106.164 24.4092L105.32 24.9453L104.476 25.4814C109.117 32.7877 112.999 41.7516 112.999 51.2637H113.999ZM105.32 24.9453L105.677 25.8795C113.151 23.0253 120.65 21.4277 126.29 20.5443C129.108 20.103 131.456 19.8409 133.097 19.6892C133.917 19.6134 134.56 19.5652 134.997 19.536C135.215 19.5214 135.381 19.5116 135.492 19.5055C135.548 19.5024 135.59 19.5003 135.617 19.4989C135.631 19.4982 135.641 19.4978 135.647 19.4975C135.65 19.4973 135.653 19.4972 135.654 19.4971C135.655 19.4971 135.655 19.4971 135.656 19.4971C135.656 19.4971 135.656 19.4971 135.656 19.4971C135.656 19.4971 135.656 19.4971 135.611 18.498C135.567 17.499 135.567 17.499 135.567 17.4991C135.566 17.4991 135.566 17.4991 135.566 17.4991C135.565 17.4991 135.564 17.4992 135.563 17.4992C135.561 17.4993 135.557 17.4995 135.553 17.4997C135.545 17.5 135.533 17.5006 135.518 17.5014C135.487 17.5029 135.441 17.5053 135.382 17.5085C135.264 17.5151 135.089 17.5254 134.863 17.5405C134.411 17.5707 133.751 17.6202 132.913 17.6977C131.236 17.8527 128.846 18.1197 125.981 18.5684C120.256 19.4651 112.61 21.0911 104.964 24.0111L105.32 24.9453Z" fill="#F7E6BD" fill-opacity="0.51" mask="url(#path-3-inside-1_2450_529)"/>
<mask id="path-5-inside-2_2450_529" fill="white">
<path d="M134.804 53.2614C150.47 47.9151 163.564 49.6953 163.564 49.6953C163.525 49.8223 154.937 78.0233 126.445 88.7499C109.412 92.898 98.811 94.3513 93.2085 93.6996C101.025 87.4717 105.769 80.208 107.844 76.562C111.955 74.6785 116.611 72.051 121.786 68.5739C127.514 63.8413 131.728 58.4131 134.804 53.2614Z"/>
</mask>
<path d="M134.804 53.2614C150.47 47.9151 163.564 49.6953 163.564 49.6953C163.525 49.8223 154.937 78.0233 126.445 88.7499C109.412 92.898 98.811 94.3513 93.2085 93.6996C101.025 87.4717 105.769 80.208 107.844 76.562C111.955 74.6785 116.611 72.051 121.786 68.5739C127.514 63.8413 131.728 58.4131 134.804 53.2614Z" fill="url(#paint2_linear_2450_529)"/>
<path d="M134.804 53.2614L134.481 52.315L134.134 52.4336L133.946 52.7487L134.804 53.2614ZM163.564 49.6953L164.521 49.9857L164.861 48.8626L163.698 48.7045L163.564 49.6953ZM126.445 88.7499L126.681 89.7215L126.74 89.7072L126.797 89.6858L126.445 88.7499ZM93.2085 93.6996L92.5854 92.9175L90.7057 94.4152L93.093 94.6929L93.2085 93.6996ZM107.844 76.562L107.427 75.6529L107.134 75.7872L106.975 76.0674L107.844 76.562ZM121.786 68.5739L122.344 69.404L122.385 69.3764L122.423 69.3448L121.786 68.5739ZM134.804 53.2614L135.127 54.2078C142.849 51.5724 149.941 50.6928 155.101 50.4726C157.68 50.3626 159.773 50.4174 161.216 50.4991C161.938 50.54 162.497 50.5875 162.873 50.6245C163.06 50.643 163.202 50.6588 163.296 50.6698C163.343 50.6753 163.377 50.6796 163.4 50.6824C163.411 50.6839 163.419 50.6849 163.424 50.6855C163.426 50.6859 163.428 50.6861 163.429 50.6862C163.429 50.6863 163.429 50.6863 163.429 50.6863C163.429 50.6863 163.429 50.6863 163.429 50.6863C163.429 50.6863 163.429 50.6862 163.564 49.6953C163.698 48.7045 163.698 48.7044 163.698 48.7044C163.697 48.7043 163.697 48.7043 163.697 48.7042C163.696 48.7041 163.695 48.704 163.694 48.7038C163.691 48.7035 163.688 48.7031 163.684 48.7026C163.677 48.7016 163.666 48.7002 163.652 48.6984C163.623 48.6948 163.583 48.6897 163.53 48.6835C163.424 48.6711 163.269 48.6539 163.068 48.6341C162.667 48.5946 162.08 48.5448 161.33 48.5023C159.828 48.4173 157.669 48.3612 155.016 48.4744C149.713 48.7007 142.425 49.6041 134.481 52.315L134.804 53.2614ZM163.564 49.6953L162.607 49.4049C162.607 49.4048 162.076 51.1517 160.84 53.9371C159.604 56.7228 157.664 60.5407 154.847 64.6857C149.212 72.978 140.09 82.5441 126.092 87.814L126.445 88.7499L126.797 89.6858C155.762 78.7813 164.469 50.1545 164.521 49.9857L163.564 49.6953ZM126.445 88.7499L126.208 87.7783C117.709 89.8482 110.833 91.2409 105.396 92.0352C99.943 92.8316 95.9947 93.017 93.3241 92.7063L93.2085 93.6996L93.093 94.6929C96.0248 95.0339 100.178 94.8185 105.685 94.0142C111.206 93.2076 118.148 91.7997 126.681 89.7215L126.445 88.7499ZM93.2085 93.6996L93.8317 94.4817C101.783 88.1466 106.602 80.7661 108.713 77.0566L107.844 76.562L106.975 76.0674C104.936 79.65 100.267 86.7969 92.5854 92.9175L93.2085 93.6996ZM107.844 76.562L108.26 77.4712C112.43 75.5608 117.133 72.9049 122.344 69.404L121.786 68.5739L121.229 67.7439C116.089 71.1972 111.48 73.7961 107.427 75.6529L107.844 76.562ZM121.786 68.5739L122.423 69.3448C128.255 64.5262 132.54 59.0044 135.663 53.7741L134.804 53.2614L133.946 52.7487C130.916 57.8219 126.773 63.1563 121.149 67.803L121.786 68.5739Z" fill="#F7E6BD" fill-opacity="0.51" mask="url(#path-5-inside-2_2450_529)"/>
<mask id="path-7-inside-3_2450_529" fill="white">
<path d="M32.192 53.6305C16.526 48.2842 3.43247 50.0645 3.43247 50.0645C3.47099 50.1914 12.0593 78.3925 40.5515 89.119C57.5844 93.2671 68.1851 94.7204 73.7875 94.0687C65.9711 87.8409 61.2271 80.5772 59.1522 76.9312C55.0408 75.0476 50.3849 72.4202 45.2098 68.9431C39.4817 64.2104 35.2682 58.7823 32.192 53.6305Z"/>
</mask>
<path d="M32.192 53.6305C16.526 48.2842 3.43247 50.0645 3.43247 50.0645C3.47099 50.1914 12.0593 78.3925 40.5515 89.119C57.5844 93.2671 68.1851 94.7204 73.7875 94.0687C65.9711 87.8409 61.2271 80.5772 59.1522 76.9312C55.0408 75.0476 50.3849 72.4202 45.2098 68.9431C39.4817 64.2104 35.2682 58.7823 32.192 53.6305Z" fill="url(#paint3_linear_2450_529)"/>
<path d="M32.192 53.6305L32.515 52.6841L32.8624 52.8027L33.0506 53.1179L32.192 53.6305ZM3.43247 50.0645L2.47556 50.3549L2.1347 49.2317L3.29774 49.0736L3.43247 50.0645ZM40.5515 89.119L40.3149 90.0906L40.2559 90.0763L40.1992 90.0549L40.5515 89.119ZM73.7875 94.0687L74.4107 93.2866L76.2904 94.7843L73.9031 95.062L73.7875 94.0687ZM59.1522 76.9312L59.5687 76.022L59.8618 76.1563L60.0213 76.4366L59.1522 76.9312ZM45.2098 68.9431L44.6521 69.7731L44.6111 69.7455L44.5729 69.714L45.2098 68.9431ZM32.192 53.6305L31.869 54.577C24.1467 51.9416 17.055 51.0619 11.8948 50.8417C9.31589 50.7317 7.22297 50.7865 5.77964 50.8683C5.05809 50.9091 4.49925 50.9567 4.12359 50.9936C3.93578 51.0121 3.79379 51.0279 3.70019 51.0389C3.6534 51.0445 3.6187 51.0488 3.59643 51.0516C3.58529 51.053 3.57726 51.054 3.57237 51.0547C3.56992 51.055 3.56827 51.0552 3.5674 51.0553C3.56697 51.0554 3.56674 51.0554 3.56671 51.0554C3.56668 51.0554 3.56681 51.0554 3.5668 51.0554C3.56697 51.0554 3.5672 51.0554 3.43247 50.0645C3.29774 49.0736 3.29806 49.0736 3.29843 49.0735C3.29862 49.0735 3.29905 49.0734 3.29943 49.0734C3.30019 49.0733 3.30115 49.0731 3.30231 49.073C3.30463 49.0727 3.30775 49.0723 3.31166 49.0718C3.31948 49.0707 3.33047 49.0693 3.34458 49.0675C3.37281 49.0639 3.41356 49.0589 3.46648 49.0527C3.57233 49.0402 3.72695 49.023 3.92776 49.0032C4.32935 48.9637 4.91583 48.914 5.66658 48.8715C7.16785 48.7865 9.32742 48.7304 11.9801 48.8436C17.2832 49.0698 24.5713 49.9732 32.515 52.6841L32.192 53.6305ZM3.43247 50.0645L4.38937 49.7741C4.38932 49.7739 4.91961 51.5209 6.15587 54.3062C7.3923 57.092 9.33201 60.9099 12.1489 65.0548C17.7845 73.3471 26.9056 82.9132 40.9038 88.1832L40.5515 89.119L40.1992 90.0549C11.2344 79.1504 2.52677 50.5236 2.47556 50.3549L3.43247 50.0645ZM40.5515 89.119L40.7881 88.1474C49.2875 90.2173 56.1629 91.6101 61.6005 92.4043C67.0531 93.2007 71.0014 93.3861 73.672 93.0754L73.7875 94.0687L73.9031 95.062C70.9713 95.4031 66.818 95.1876 61.3114 94.3833C55.7898 93.5768 48.8484 92.1688 40.3149 90.0906L40.5515 89.119ZM73.7875 94.0687L73.1644 94.8508C65.2133 88.5157 60.3941 81.1352 58.2831 77.4258L59.1522 76.9312L60.0213 76.4366C62.0601 80.0191 66.7288 87.1661 74.4107 93.2866L73.7875 94.0687ZM59.1522 76.9312L58.7357 77.8403C54.5658 75.93 49.8627 73.2741 44.6521 69.7731L45.2098 68.9431L45.7675 68.113C50.9072 71.5663 55.5157 74.1652 59.5687 76.022L59.1522 76.9312ZM45.2098 68.9431L44.5729 69.714C38.7407 64.8954 34.4565 59.3736 31.3334 54.1432L32.192 53.6305L33.0506 53.1179C36.0798 58.191 40.2227 63.5255 45.8468 68.1721L45.2098 68.9431Z" fill="#F7E6BD" fill-opacity="0.51" mask="url(#path-7-inside-3_2450_529)"/>
<mask id="path-9-inside-4_2450_529" fill="white">
<path d="M31.1426 18C31.1329 18.1002 28.4537 46.1036 46.7656 64.6152C51.9698 68.6325 56.8464 71.7241 61.3418 74C57.5139 68.9091 54.4316 61.3634 52.7549 51.0596C52.7549 41.1951 56.7406 31.9602 61.4336 24.5049C46.3138 18.6789 31.1426 18 31.1426 18Z"/>
</mask>
<path d="M31.1426 18C31.1329 18.1002 28.4537 46.1036 46.7656 64.6152C51.9698 68.6325 56.8464 71.7241 61.3418 74C57.5139 68.9091 54.4316 61.3634 52.7549 51.0596C52.7549 41.1951 56.7406 31.9602 61.4336 24.5049C46.3138 18.6789 31.1426 18 31.1426 18Z" fill="url(#paint4_linear_2450_529)"/>
<path d="M31.1426 18L30.1472 17.9041L30.2383 16.9585L31.1873 17.001L31.1426 18ZM46.7656 64.6152L46.1546 65.4068L46.1017 65.366L46.0547 65.3185L46.7656 64.6152ZM61.3418 74L62.1411 73.399L60.8901 74.8922L61.3418 74ZM52.7549 51.0596L51.7679 51.2202L51.7549 51.1404V51.0596H52.7549ZM61.4336 24.5049L61.7931 23.5718L62.9275 24.0088L62.2799 25.0376L61.4336 24.5049ZM31.1426 18L32.138 18.0959C32.138 18.0958 31.4716 25.0247 33.0688 34.2324C34.6669 43.4452 38.5158 54.8535 47.4766 63.912L46.7656 64.6152L46.0547 65.3185C36.7035 55.8654 32.736 44.0161 31.0982 34.5742C29.4595 25.1273 30.1375 18.0044 30.1472 17.9041L31.1426 18ZM46.7656 64.6152L47.3767 63.8236C52.539 67.8086 57.3626 70.8646 61.7935 73.1078L61.3418 74L60.8901 74.8922C56.3302 72.5836 51.4006 69.4564 46.1546 65.4068L46.7656 64.6152ZM61.3418 74L60.5425 74.601C56.5888 69.3427 53.4617 61.6293 51.7679 51.2202L52.7549 51.0596L53.7419 50.899C55.4015 61.0976 58.4391 68.4755 62.1411 73.399L61.3418 74ZM52.7549 51.0596H51.7549C51.7549 40.9329 55.8421 31.5104 60.5873 23.9722L61.4336 24.5049L62.2799 25.0376C57.6391 32.41 53.7549 41.4573 53.7549 51.0596H52.7549ZM61.4336 24.5049L61.074 25.438C53.6009 22.5584 46.1018 20.9466 40.4621 20.0555C37.6447 19.6103 35.2971 19.3458 33.6565 19.1928C32.8363 19.1163 32.1932 19.0677 31.7568 19.0383C31.5386 19.0236 31.3721 19.0137 31.261 19.0075C31.2055 19.0044 31.1638 19.0022 31.1365 19.0009C31.1228 19.0002 31.1127 18.9997 31.1063 18.9994C31.103 18.9992 31.1007 18.9991 31.0993 18.9991C31.0986 18.999 31.0981 18.999 31.0979 18.999C31.0978 18.999 31.0978 18.999 31.0977 18.999C31.0978 18.999 31.0979 18.999 31.1426 18C31.1873 17.001 31.1875 17.001 31.1878 17.001C31.188 17.001 31.1883 17.001 31.1886 17.0011C31.1893 17.0011 31.1902 17.0011 31.1914 17.0012C31.1937 17.0013 31.1969 17.0014 31.201 17.0016C31.2092 17.002 31.2211 17.0026 31.2366 17.0034C31.2676 17.0049 31.313 17.0073 31.3723 17.0106C31.4908 17.0172 31.6651 17.0276 31.8912 17.0428C32.3436 17.0733 33.0038 17.1232 33.8422 17.2014C35.5187 17.3578 37.9089 17.6272 40.7743 18.08C46.5001 18.9848 54.1465 20.6254 61.7931 23.5718L61.4336 24.5049Z" fill="#F7E6BD" fill-opacity="0.51" mask="url(#path-9-inside-4_2450_529)"/>
<defs>
<linearGradient id="paint0_linear_2450_529" x1="83" y1="0" x2="83" y2="91" gradientUnits="userSpaceOnUse">
<stop offset="0.230769" stop-color="#FFFCEF"/>
<stop offset="1" stop-color="#F9F6EB" stop-opacity="0.4"/>
</linearGradient>
<linearGradient id="paint1_linear_2450_529" x1="120.537" y1="18.498" x2="120.537" y2="73.999" gradientUnits="userSpaceOnUse">
<stop offset="0.230769" stop-color="#FFFCEF"/>
<stop offset="1" stop-color="#F9F6EB" stop-opacity="0.4"/>
</linearGradient>
<linearGradient id="paint2_linear_2450_529" x1="126.601" y1="51.967" x2="130.128" y2="90.9498" gradientUnits="userSpaceOnUse">
<stop offset="0.230769" stop-color="#FFFCEF"/>
<stop offset="1" stop-color="#F9F6EB" stop-opacity="0.4"/>
</linearGradient>
<linearGradient id="paint3_linear_2450_529" x1="40.3952" y1="52.3362" x2="36.868" y2="91.3189" gradientUnits="userSpaceOnUse">
<stop offset="0.230769" stop-color="#FFFCEF"/>
<stop offset="1" stop-color="#F9F6EB" stop-opacity="0.4"/>
</linearGradient>
<linearGradient id="paint4_linear_2450_529" x1="46.2168" y1="18" x2="46.2168" y2="74" gradientUnits="userSpaceOnUse">
<stop offset="0.230769" stop-color="#FFFCEF"/>
<stop offset="1" stop-color="#F9F6EB" stop-opacity="0.4"/>
</linearGradient>
</defs>
</svg>
